<?xml version="1.0" encoding="UTF-8"?>
<svg version="1.1" xmlns="http://www.w3.org/2000/svg" width="447" height="559">
<path d="M0 0 C1.00224609 -0.00708984 2.00449219 -0.01417969 3.03710938 -0.02148438 C8.93386811 0.02898163 13.21053991 0.67373569 18.4375 3.4375 C18.4375 4.0975 18.4375 4.7575 18.4375 5.4375 C19.4275 5.7675 20.4175 6.0975 21.4375 6.4375 C23.8370127 10.62991823 23.69833585 14.88624468 23.6328125 19.58203125 C23.6299826 20.35181808 23.62715271 21.12160492 23.62423706 21.91471863 C23.61309157 24.35997425 23.58799781 26.80485612 23.5625 29.25 C23.5524629 30.91340615 23.54333833 32.57681807 23.53515625 34.24023438 C23.51317073 38.30613237 23.47868014 42.37175294 23.4375 46.4375 C22.7775 46.4375 22.1175 46.4375 21.4375 46.4375 C21.1075 47.4275 20.7775 48.4175 20.4375 49.4375 C18.23863166 50.70789176 16.10770276 51.8110123 13.8125 52.875 C7.93225649 55.68688137 7.93225649 55.68688137 2.25 58.875 C-0.5625 60.4375 -0.5625 60.4375 -3.5625 60.4375 C-3.5625 61.0975 -3.5625 61.7575 -3.5625 62.4375 C-4.2225 62.4375 -4.8825 62.4375 -5.5625 62.4375 C-5.5625 65.7375 -5.5625 69.0375 -5.5625 72.4375 C-2.2625 72.4375 1.0375 72.4375 4.4375 72.4375 C4.56125 71.65375 4.685 70.87 4.8125 70.0625 C5.4375 67.4375 5.4375 67.4375 7.4375 65.4375 C10.625 65.171875 10.625 65.171875 14.4375 65.1875 C15.695625 65.18234375 16.95375 65.1771875 18.25 65.171875 C21.4375 65.4375 21.4375 65.4375 23.4375 67.4375 C23.66455078 69.68408203 23.66455078 69.68408203 23.6328125 72.4453125 C23.62636719 73.43144531 23.61992187 74.41757812 23.61328125 75.43359375 C23.59652344 76.46613281 23.57976562 77.49867188 23.5625 78.5625 C23.55347656 79.60277344 23.54445312 80.64304687 23.53515625 81.71484375 C23.51153747 84.28929092 23.47860149 86.86328212 23.4375 89.4375 C20.72328902 90.34223699 19.15228269 90.56379595 16.36499023 90.56689453 C15.14373695 90.57162277 15.14373695 90.57162277 13.89781189 90.57644653 C13.0227449 90.5744223 12.14767792 90.57239807 11.24609375 90.5703125 C10.3450441 90.57126923 9.44399445 90.57222595 8.51564026 90.57321167 C6.61174449 90.57389198 4.70784639 90.57204806 2.80395508 90.56787109 C-0.11707743 90.56251453 -3.03795661 90.56782431 -5.95898438 90.57421875 C-7.80729201 90.57355806 -9.65559954 90.5722771 -11.50390625 90.5703125 C-12.81954308 90.57334885 -12.81954308 90.57334885 -14.16175842 90.57644653 C-20.33257489 90.55246256 -20.33257489 90.55246256 -22.5625 89.4375 C-22.86033371 84.01196249 -23.07735783 78.59121732 -23.22167969 73.15942383 C-23.28184528 71.31483084 -23.36361255 69.4708061 -23.46777344 67.62817383 C-24.13961101 55.43300456 -24.13961101 55.43300456 -22.5625 50.4375 C-19.0766027 46.64236988 -15.36036783 45.13154629 -10.5625 43.4375 C-9.13929685 42.72212135 -7.72540937 41.98742434 -6.328125 41.22265625 C-3.07291667 39.62760417 0.18229167 38.03255208 3.4375 36.4375 C3.7675 30.4975 4.0975 24.5575 4.4375 18.4375 C-0.5125 18.9325 -0.5125 18.9325 -5.5625 19.4375 C-5.55089844 20.36433594 -5.53929687 21.29117188 -5.52734375 22.24609375 C-5.51832031 23.44363281 -5.50929687 24.64117187 -5.5 25.875 C-5.48839844 27.06996094 -5.47679687 28.26492187 -5.46484375 29.49609375 C-5.5625 32.4375 -5.5625 32.4375 -6.5625 33.4375 C-9.07386104 33.53725032 -11.55153415 33.57632183 -14.0625 33.5625 C-14.76503906 33.56636719 -15.46757812 33.57023437 -16.19140625 33.57421875 C-21.43588622 33.56411378 -21.43588622 33.56411378 -22.5625 32.4375 C-22.84356102 28.69512998 -22.79435411 24.93916221 -22.8125 21.1875 C-22.833125 20.13691406 -22.85375 19.08632812 -22.875 18.00390625 C-22.88015625 16.98683594 -22.8853125 15.96976563 -22.890625 14.921875 C-22.8999707 13.99084961 -22.90931641 13.05982422 -22.91894531 12.10058594 C-22.40246436 8.24183645 -20.94111673 5.5730129 -17.92602539 3.08959961 C-11.98299694 0.04309324 -6.59620739 -0.13200932 0 0 Z " fill="#C5F406" transform="translate(209.5625,210.5625)"/>
<path d="M0 0 C2.64 0 5.28 0 8 0 C9.28003766 2.56007532 9.25701077 4.64163993 9.4375 7.5 C9.7970749 12.28862448 10.50876429 16.812207 11.53125 21.49609375 C12.19365017 25.03441465 12.43533491 28.57419229 12.65625 32.1640625 C13.10755291 35.88731152 14.04135757 39.37416695 15 43 C16.59889659 31.41360705 18.18106372 19.82847612 19.5703125 8.21484375 C19.94097727 5.44159731 20.41084127 2.73390323 21 0 C23.97 0 26.94 0 30 0 C30.45953652 3.33317154 30.91792941 6.66648992 31.375 10 C31.51147949 10.99499512 31.64795898 11.98999023 31.78857422 13.01513672 C32.78173336 20.29713393 33.70544575 27.58455096 34.5703125 34.8828125 C34.96664102 38.17196194 34.96664102 38.17196194 36 42 C37.98 28.14 39.96 14.28 42 0 C44.64 0 47.28 0 50 0 C48.97404665 9.20944003 47.83285658 18.39207721 46.5 27.5625 C44.95899052 38.16599785 43.52535884 48.77648337 42.4375 59.4375 C42 63 42 63 41 64 C37.37 64 33.74 64 30 64 C27.525 48.16 27.525 48.16 25 32 C23.31223132 42.66362938 21.63222955 53.32772986 20 64 C16.04 64 12.08 64 8 64 C7.32271923 59.57522795 6.64736971 55.15016622 5.97363281 50.72485352 C5.74529253 49.22673021 5.51646959 47.72868038 5.28710938 46.23071289 C3.91721732 37.2813523 2.61285515 28.32983545 1.44287109 19.35180664 C1.12923719 16.97811321 0.79632791 14.60692992 0.44995117 12.23779297 C0.06274374 9.45149616 -0.10566149 6.86799698 -0.0625 4.0625 C-0.05347656 3.29035156 -0.04445312 2.51820313 -0.03515625 1.72265625 C-0.02355469 1.15417969 -0.01195312 0.58570313 0 0 Z " fill="#1D1D1D" transform="translate(240,225)"/>
<path d="M0 0 C3.63 0 7.26 0 11 0 C13.95093858 8.63512356 16.71737684 17.26368393 19.10546875 26.07421875 C19.87459739 28.58984036 20.79450655 30.67972906 22 33 C22.02505615 32.03586182 22.0501123 31.07172363 22.07592773 30.07836914 C22.16985306 26.51312158 22.27010939 22.94807567 22.37231445 19.38305664 C22.41571985 17.83785711 22.45739071 16.29260786 22.49731445 14.74731445 C22.55488199 12.53060904 22.61861424 10.3141552 22.68359375 8.09765625 C22.70866249 7.05545677 22.70866249 7.05545677 22.73423767 5.99220276 C22.88612829 1.11387171 22.88612829 1.11387171 24 0 C26.64 0 29.28 0 32 0 C32 21.12 32 42.24 32 64 C28.7 64 25.4 64 22 64 C18.90208794 56.01691893 16.48633085 47.94865262 14.19482422 39.70239258 C13.95393066 38.8389624 13.71303711 37.97553223 13.46484375 37.0859375 C13.254646 36.3232959 13.04444824 35.5606543 12.82788086 34.77490234 C11.64795321 30.82000477 10.30512237 26.91536712 9 23 C8.67 36.53 8.34 50.06 8 64 C5.36 64 2.72 64 0 64 C0 42.88 0 21.76 0 0 Z " fill="#262626" transform="translate(308,225)"/>
<path d="M0 0 C3.96 0 7.92 0 12 0 C14.24741628 7.00254283 15.77365472 13.79982077 16.875 21.0625 C18.45631832 31.06567983 20.33508721 40.97970847 22.42529297 50.88891602 C22.73297607 52.37282837 22.73297607 52.37282837 23.046875 53.88671875 C23.23088867 54.75514404 23.41490234 55.62356934 23.60449219 56.51831055 C24.00874458 59.05486957 24.07005037 61.43598422 24 64 C21.36 64 18.72 64 16 64 C14.29427716 59.52247755 14 57.01632918 14 52 C9.05 52 4.1 52 -1 52 C-1.309375 53.794375 -1.61875 55.58875 -1.9375 57.4375 C-2.875 62.875 -2.875 62.875 -4 64 C-6.67058851 64.14115161 -9.32432238 64.04247107 -12 64 C-11.38182144 60.14470736 -10.75423432 56.29100236 -10.125 52.4375 C-9.95097656 51.35146484 -9.77695313 50.26542969 -9.59765625 49.14648438 C-8.69247196 43.63156528 -7.59072379 38.36453295 -6 33 C-5.60847705 30.73530845 -5.25287696 28.46404462 -4.9375 26.1875 C-4.10526316 20.21052632 -4.10526316 20.21052632 -3 18 C-2.63352394 15.90135192 -2.3056299 13.79586876 -2 11.6875 C-1.42606115 7.7551221 -0.7801467 3.90073352 0 0 Z M5 16 C4.16214152 20.26995856 3.33048723 24.54110216 2.5 28.8125 C2.26152344 30.02744141 2.02304688 31.24238281 1.77734375 32.49414062 C1.55175781 33.65751953 1.32617188 34.82089844 1.09375 36.01953125 C0.88427734 37.09307861 0.67480469 38.16662598 0.45898438 39.27270508 C-0.08297956 42.03212512 -0.08297956 42.03212512 0 45 C3.96 45 7.92 45 12 45 C10.56425602 35.28111767 8.85730907 25.6456251 7 16 C6.34 16 5.68 16 5 16 Z " fill="#1B1B1B" transform="translate(125,225)"/>
<path d="M0 0 C0.89912109 -0.02900391 1.79824219 -0.05800781 2.72460938 -0.08789062 C8.4024598 -0.14204474 11.96304848 0.28374537 16.3125 4.3125 C19.89883859 9.3969294 19.76679937 14.32099239 19.6875 20.3125 C19.69910156 21.1890625 19.71070312 22.065625 19.72265625 22.96875 C19.69924557 28.15031373 19.24731527 31.86205243 16.3125 36.3125 C9.9428558 41.35513499 7.35948688 40.3125 -1.6875 40.3125 C-1.6875 48.2325 -1.6875 56.1525 -1.6875 64.3125 C-4.6575 64.3125 -7.6275 64.3125 -10.6875 64.3125 C-10.7106271 56.11559439 -10.72841696 47.91870232 -10.73931217 39.72177219 C-10.7445402 35.91598423 -10.75163638 32.11021852 -10.76293945 28.30444336 C-10.7737712 24.63457456 -10.77977744 20.96472722 -10.78237724 17.29484367 C-10.78423097 15.89175008 -10.7878506 14.48865771 -10.79323006 13.0855732 C-10.80044419 11.1268032 -10.80090809 9.1680118 -10.80102539 7.20922852 C-10.803246 6.09226089 -10.80546661 4.97529327 -10.80775452 3.82447815 C-10.54058031 -1.75648281 -4.4134374 0.04645724 0 0 Z M-1.6875 8.3125 C-1.6875 16.2325 -1.6875 24.1525 -1.6875 32.3125 C5.50686684 32.78454213 5.50686684 32.78454213 8.7890625 31.375 C11.29872759 27.97729957 10.80999367 24.41281453 10.6875 20.3125 C10.68621094 19.49265625 10.68492188 18.6728125 10.68359375 17.828125 C10.6515706 12.78081685 10.6515706 12.78081685 8.3125 8.3125 C5.0125 8.3125 1.7125 8.3125 -1.6875 8.3125 Z " fill="#1D1D1D" transform="translate(92.6875,224.6875)"/>
<path d="M0 0 C2.97 0 5.94 0 9 0 C9.5420166 1.6260498 10.08402221 3.25210328 10.62597656 4.87817383 C11.08476575 6.25437824 11.54375107 7.63051727 12.00292969 9.0065918 C12.99472434 11.97951384 13.98450865 14.95296148 14.96484375 17.9296875 C16.28661449 22.04271861 16.28661449 22.04271861 18 26 C18.38091797 24.74896484 18.38091797 24.74896484 18.76953125 23.47265625 C24.45480397 4.88373085 24.45480397 4.88373085 27 0 C29.64 0 32.28 0 35 0 C34.38170849 4.59133844 33.16327339 8.59547529 31.53125 12.92578125 C25.16550627 30.31852367 21.26874748 45.24252265 22 64 C19.03 64 16.06 64 13 64 C13.06703125 62.68515625 13.1340625 61.3703125 13.203125 60.015625 C13.49987511 44.02265798 9.56274236 30.82917706 4.21777344 15.93847656 C3.94471878 15.17740601 3.67166412 14.41633545 3.39033508 13.63220215 C2.86973363 12.19471061 2.34131876 10.76001661 1.80387878 9.32873535 C0.56311776 5.9584586 0 3.65117488 0 0 Z " fill="#1E1E1E" transform="translate(147,225)"/>
<path d="M0 0 C0.83402344 -0.01611328 1.66804688 -0.03222656 2.52734375 -0.04882812 C8.03398423 -0.05315045 11.84333797 0.79949337 16.75 3.3125 C16.75 3.9725 16.75 4.6325 16.75 5.3125 C17.74 5.6425 18.73 5.9725 19.75 6.3125 C22.1495127 10.50491823 22.01083585 14.76124468 21.9453125 19.45703125 C21.9424826 20.22681808 21.93965271 20.99660492 21.93673706 21.78971863 C21.92559157 24.23497425 21.90049781 26.67985612 21.875 29.125 C21.8649629 30.78840615 21.85583833 32.45181807 21.84765625 34.11523438 C21.82567073 38.18113237 21.79118014 42.24675294 21.75 46.3125 C21.09 46.3125 20.43 46.3125 19.75 46.3125 C19.42 47.3025 19.09 48.2925 18.75 49.3125 C16.55113166 50.58289176 14.42020276 51.6860123 12.125 52.75 C6.24475649 55.56188137 6.24475649 55.56188137 0.5625 58.75 C-2.25 60.3125 -2.25 60.3125 -5.25 60.3125 C-5.25 60.9725 -5.25 61.6325 -5.25 62.3125 C-5.91 62.3125 -6.57 62.3125 -7.25 62.3125 C-7.25 65.6125 -7.25 68.9125 -7.25 72.3125 C-3.95 72.3125 -0.65 72.3125 2.75 72.3125 C2.87375 71.52875 2.9975 70.745 3.125 69.9375 C3.75 67.3125 3.75 67.3125 5.75 65.3125 C8.9375 65.046875 8.9375 65.046875 12.75 65.0625 C14.008125 65.05734375 15.26625 65.0521875 16.5625 65.046875 C19.75 65.3125 19.75 65.3125 21.75 67.3125 C21.97705078 69.55908203 21.97705078 69.55908203 21.9453125 72.3203125 C21.93886719 73.30644531 21.93242187 74.29257812 21.92578125 75.30859375 C21.90902344 76.34113281 21.89226562 77.37367188 21.875 78.4375 C21.86597656 79.47777344 21.85695312 80.51804687 21.84765625 81.58984375 C21.82403747 84.16429092 21.79110149 86.73828212 21.75 89.3125 C19.03578902 90.21723699 17.46478269 90.43879595 14.67749023 90.44189453 C13.45623695 90.44662277 13.45623695 90.44662277 12.21031189 90.45144653 C11.3352449 90.4494223 10.46017792 90.44739807 9.55859375 90.4453125 C8.6575441 90.44626923 7.75649445 90.44722595 6.82814026 90.44821167 C4.92424449 90.44889198 3.02034639 90.44704806 1.11645508 90.44287109 C-1.80457743 90.43751453 -4.72545661 90.44282431 -7.64648438 90.44921875 C-9.49479201 90.44855806 -11.34309954 90.4472771 -13.19140625 90.4453125 C-14.50704308 90.44834885 -14.50704308 90.44834885 -15.84925842 90.45144653 C-22.02007489 90.42746256 -22.02007489 90.42746256 -24.25 89.3125 C-24.54783371 83.88696249 -24.76485783 78.46621732 -24.90917969 73.03442383 C-24.96934528 71.18983084 -25.05111255 69.3458061 -25.15527344 67.50317383 C-25.82711101 55.30800456 -25.82711101 55.30800456 -24.25 50.3125 C-20.7641027 46.51736988 -17.04786783 45.00654629 -12.25 43.3125 C-10.82679685 42.59712135 -9.41290937 41.86242434 -8.015625 41.09765625 C-4.76041667 39.50260417 -1.50520833 37.90755208 1.75 36.3125 C2.08 30.3725 2.41 24.4325 2.75 18.3125 C-2.2 18.8075 -2.2 18.8075 -7.25 19.3125 C-7.23839844 20.23933594 -7.22679687 21.16617188 -7.21484375 22.12109375 C-7.20582031 23.31863281 -7.19679687 24.51617187 -7.1875 25.75 C-7.17589844 26.94496094 -7.16429687 28.13992187 -7.15234375 29.37109375 C-7.25 32.3125 -7.25 32.3125 -8.25 33.3125 C-10.76136104 33.41225032 -13.23903415 33.45132183 -15.75 33.4375 C-16.45253906 33.44136719 -17.15507812 33.44523437 -17.87890625 33.44921875 C-23.12338622 33.43911378 -23.12338622 33.43911378 -24.25 32.3125 C-24.53106102 28.57012998 -24.48185411 24.81416221 -24.5 21.0625 C-24.520625 20.01191406 -24.54125 18.96132812 -24.5625 17.87890625 C-24.56765625 16.86183594 -24.5728125 15.84476563 -24.578125 14.796875 C-24.5874707 13.86584961 -24.59681641 12.93482422 -24.60644531 11.97558594 C-24.17573498 8.75764876 -23.1563402 6.9224104 -21.25 4.3125 C-18.02208445 2.1605563 -16.96599191 2.11163557 -13.25 2.3125 C-14.4565625 3.488125 -14.4565625 3.488125 -15.6875 4.6875 C-18.23690417 7.03232856 -18.23690417 7.03232856 -19.25 9.3125 C-19.91 9.3125 -20.57 9.3125 -21.25 9.3125 C-22.00277515 12.04499341 -22.41641703 14.59350683 -22.56640625 17.421875 C-22.60830078 18.17597656 -22.65019531 18.93007812 -22.69335938 19.70703125 C-22.73267578 20.48433594 -22.77199219 21.26164062 -22.8125 22.0625 C-22.85568359 22.85527344 -22.89886719 23.64804688 -22.94335938 24.46484375 C-23.04902991 26.41387815 -23.14997966 28.36316748 -23.25 30.3125 C-18.3 30.3125 -13.35 30.3125 -8.25 30.3125 C-8.270625 28.188125 -8.29125 26.06375 -8.3125 23.875 C-8.33373783 21.68750389 -8.32258946 19.49889453 -8.25 17.3125 C-6.59346314 15.65596314 -4.64349204 16.14143835 -2.375 16.125 C-1.49070313 16.11082031 -0.60640625 16.09664062 0.3046875 16.08203125 C2.75 16.3125 2.75 16.3125 5.75 18.3125 C6.09057617 20.28369141 6.09057617 20.28369141 6.04296875 22.6640625 C6.03330078 23.51484375 6.02363281 24.365625 6.01367188 25.2421875 C5.98853516 26.13164062 5.96339844 27.02109375 5.9375 27.9375 C5.91719727 29.28328125 5.91719727 29.28328125 5.89648438 30.65625 C5.86106925 32.87559789 5.81168461 35.09375188 5.75 37.3125 C-2.45906042 41.73103798 -10.67982556 46.08549464 -19.0546875 50.18359375 C-21.16868799 51.12936604 -21.16868799 51.12936604 -22.25 52.3125 C-22.3385067 54.90584148 -22.3653317 57.47312579 -22.34765625 60.06640625 C-22.34664917 60.75343628 -22.34564209 61.44046631 -22.34460449 62.14831543 C-22.33935776 64.72389384 -22.32539659 67.29944853 -22.3125 69.875 C-22.291875 75.629375 -22.27125 81.38375 -22.25 87.3125 C-8.72 87.3125 4.81 87.3125 18.75 87.3125 C18.75 81.0425 18.75 74.7725 18.75 68.3125 C14.79 68.3125 10.83 68.3125 6.75 68.3125 C6.42 70.2925 6.09 72.2725 5.75 74.3125 C1.13 74.3125 -3.49 74.3125 -8.25 74.3125 C-8.25 69.6925 -8.25 65.0725 -8.25 60.3125 C-4.50068187 58.18628924 -0.7505793 56.06148398 3 53.9375 C4.06347656 53.33421875 5.12695312 52.7309375 6.22265625 52.109375 C7.75986328 51.23925781 7.75986328 51.23925781 9.328125 50.3515625 C10.74206543 49.55032959 10.74206543 49.55032959 12.18457031 48.73291016 C14.34979442 47.53408318 16.5259424 46.3970713 18.75 45.3125 C18.82447267 40.72269186 18.87875322 36.13323986 18.91479492 31.54296875 C18.92982869 29.98333606 18.95026135 28.42374528 18.97631836 26.86425781 C19.01294211 24.61512884 19.02978021 22.36656153 19.04296875 20.1171875 C19.05845261 19.4263205 19.07393646 18.73545349 19.08988953 18.02365112 C19.09148347 13.37932016 18.20297314 10.24977257 15.75 6.3125 C10.52287638 2.44574767 4.62711927 2.76617689 -1.625 2.625 C-2.64722656 2.59083984 -3.66945312 2.55667969 -4.72265625 2.52148438 C-7.23166114 2.43941412 -9.74033465 2.37013124 -12.25 2.3125 C-8.12620075 -0.4366995 -4.84358327 -0.01837475 0 0 Z " fill="#41521D" transform="translate(211.25,210.6875)"/>
<path d="M0 0 C2.97 0 5.94 0 9 0 C9 21.12 9 42.24 9 64 C6.03 64 3.06 64 0 64 C0 42.88 0 21.76 0 0 Z " fill="#313131" transform="translate(294,225)"/>
<path d="M0 0 C-1.2065625 1.175625 -1.2065625 1.175625 -2.4375 2.375 C-4.98690417 4.71982856 -4.98690417 4.71982856 -6 7 C-6.66 7 -7.32 7 -8 7 C-8.75277515 9.73249341 -9.16641703 12.28100683 -9.31640625 15.109375 C-9.35830078 15.86347656 -9.40019531 16.61757812 -9.44335938 17.39453125 C-9.48267578 18.17183594 -9.52199219 18.94914062 -9.5625 19.75 C-9.60568359 20.54277344 -9.64886719 21.33554688 -9.69335938 22.15234375 C-9.79902991 24.10137815 -9.89997966 26.05066748 -10 28 C-5.05 28 -0.1 28 5 28 C4.979375 25.875625 4.95875 23.75125 4.9375 21.5625 C4.91626217 19.37500389 4.92741054 17.18639453 5 15 C6.65653686 13.34346314 8.60650796 13.82893835 10.875 13.8125 C11.75929687 13.79832031 12.64359375 13.78414062 13.5546875 13.76953125 C16 14 16 14 19 16 C19.34057617 17.97119141 19.34057617 17.97119141 19.29296875 20.3515625 C19.28330078 21.20234375 19.27363281 22.053125 19.26367188 22.9296875 C19.23853516 23.81914062 19.21339844 24.70859375 19.1875 25.625 C19.16719727 26.97078125 19.16719727 26.97078125 19.14648438 28.34375 C19.11106925 30.56309789 19.06168461 32.78125188 19 35 C-5.4 48.13333333 -5.4 48.13333333 -11 50 C-9.60926329 45.82778988 -6.77628747 44.99781445 -3.0625 43.125 C-2.38823975 42.77566406 -1.71397949 42.42632812 -1.01928711 42.06640625 C0.98178659 41.03334808 2.98943465 40.01444011 5 39 C6.0621875 38.46117187 7.124375 37.92234375 8.21875 37.3671875 C10.47345276 36.23335709 12.73577584 35.11469497 15 34 C15.33 28.06 15.66 22.12 16 16 C11.05 16.495 11.05 16.495 6 17 C6.01160156 17.92683594 6.02320313 18.85367188 6.03515625 19.80859375 C6.04417969 21.00613281 6.05320313 22.20367187 6.0625 23.4375 C6.07410156 24.63246094 6.08570313 25.82742187 6.09765625 27.05859375 C6 30 6 30 5 31 C2.48863896 31.09975032 0.01096585 31.13882183 -2.5 31.125 C-3.20253906 31.12886719 -3.90507812 31.13273437 -4.62890625 31.13671875 C-9.87338622 31.12661378 -9.87338622 31.12661378 -11 30 C-11.28106102 26.25762998 -11.23185411 22.50166221 -11.25 18.75 C-11.270625 17.69941406 -11.29125 16.64882812 -11.3125 15.56640625 C-11.31765625 14.54933594 -11.3228125 13.53226563 -11.328125 12.484375 C-11.3374707 11.55334961 -11.34681641 10.62232422 -11.35644531 9.66308594 C-10.92573498 6.44514876 -9.9063402 4.6099104 -8 2 C-4.77208445 -0.1519437 -3.71599191 -0.20086443 0 0 Z " fill="#586938" transform="translate(198,213)"/>
<path d="M0 0 C0.804375 0.185625 1.60875 0.37125 2.4375 0.5625 C3.283125 0.706875 4.12875 0.85125 5 1 C5.33 0.67 5.66 0.34 6 0 C7.51928038 -0.07179964 9.04167482 -0.08392007 10.5625 -0.0625 C11.38878906 -0.05347656 12.21507812 -0.04445313 13.06640625 -0.03515625 C13.70449219 -0.02355469 14.34257812 -0.01195312 15 0 C15.33 0.99 15.66 1.98 16 3 C16.33 2.01 16.66 1.02 17 0 C17.99 0 18.98 0 20 0 C20 4.29 20 8.58 20 13 C12.08 13 4.16 13 -4 13 C-4 12.01 -4 11.02 -4 10 C-3.01 10 -2.02 10 -1 10 C-1.020625 8.72125 -1.04125 7.4425 -1.0625 6.125 C-1.125 2.25 -1.125 2.25 0 0 Z M2 3 C0.64381501 4.12534105 0.64381501 4.12534105 0.9375 7.0625 C0.958125 8.031875 0.97875 9.00125 1 10 C1.99 10.495 1.99 10.495 3 11 C3 9.68 3 8.36 3 7 C3.66 7 4.32 7 5 7 C5 6.34 5 5.68 5 5 C4.34 5 3.68 5 3 5 C2.67 4.34 2.34 3.68 2 3 Z M8 3 C8 5.64 8 8.28 8 11 C8.33 11 8.66 11 9 11 C9 8.36 9 5.72 9 3 C8.67 3 8.34 3 8 3 Z " fill="#2B2B2B" transform="translate(347,276)"/>
<path d="M0 0 C0.33 0 0.66 0 1 0 C1.33 11.55 1.66 23.1 2 35 C15.53 35 29.06 35 43 35 C43 28.73 43 22.46 43 16 C39.04 16 35.08 16 31 16 C30.67 17.98 30.34 19.96 30 22 C26.7 22 23.4 22 20 22 C20 21.67 20 21.34 20 21 C22.64 21 25.28 21 28 21 C27.95875 20.05125 27.9175 19.1025 27.875 18.125 C28 15 28 15 30 13 C33.1875 12.734375 33.1875 12.734375 37 12.75 C38.258125 12.74484375 39.51625 12.7396875 40.8125 12.734375 C44 13 44 13 46 15 C46.22705078 17.24658203 46.22705078 17.24658203 46.1953125 20.0078125 C46.18886719 20.99394531 46.18242187 21.98007812 46.17578125 22.99609375 C46.15902344 24.02863281 46.14226562 25.06117188 46.125 26.125 C46.11597656 27.16527344 46.10695312 28.20554687 46.09765625 29.27734375 C46.07403747 31.85179092 46.04110149 34.42578212 46 37 C43.28578902 37.90473699 41.71478269 38.12629595 38.92749023 38.12939453 C37.70623695 38.13412277 37.70623695 38.13412277 36.46031189 38.13894653 C35.5852449 38.1369223 34.71017792 38.13489807 33.80859375 38.1328125 C32.9075441 38.13376923 32.00649445 38.13472595 31.07814026 38.13571167 C29.17424449 38.13639198 27.27034639 38.13454806 25.36645508 38.13037109 C22.44542257 38.12501453 19.52454339 38.13032431 16.60351562 38.13671875 C14.75520799 38.13605806 12.90690046 38.1347771 11.05859375 38.1328125 C9.74295692 38.13584885 9.74295692 38.13584885 8.40074158 38.13894653 C2.22992511 38.11496256 2.22992511 38.11496256 0 37 C0 24.79 0 12.58 0 0 Z " fill="#3D4D1B" transform="translate(187,263)"/>
<path d="M0 0 C0.33 0 0.66 0 1 0 C1 11.22 1 22.44 1 34 C14.2 34 27.4 34 41 34 C41 28.39 41 22.78 41 17 C39.39125 17.12375 37.7825 17.2475 36.125 17.375 C34.76761719 17.47941406 34.76761719 17.47941406 33.3828125 17.5859375 C30.82058097 17.79568132 30.82058097 17.79568132 29 20 C29.33 18.35 29.66 16.7 30 15 C31.97909398 14.97313447 33.95828971 14.95366625 35.9375 14.9375 C37.03964844 14.92589844 38.14179688 14.91429687 39.27734375 14.90234375 C42 15 42 15 43 16 C43.09860131 17.40348735 43.13078937 18.81180477 43.1328125 20.21875 C43.13474609 21.49298828 43.13474609 21.49298828 43.13671875 22.79296875 C43.13285156 23.68628906 43.12898438 24.57960938 43.125 25.5 C43.13080078 26.83998047 43.13080078 26.83998047 43.13671875 28.20703125 C43.13542969 29.05652344 43.13414062 29.90601563 43.1328125 30.78125 C43.13168457 31.56564453 43.13055664 32.35003906 43.12939453 33.15820312 C43 35 43 35 42 36 C38.98191937 36.101137 35.98719487 36.13968909 32.96875 36.1328125 C32.06249878 36.13376923 31.15624756 36.13472595 30.22253418 36.13571167 C28.30248953 36.13639353 26.38244259 36.13453882 24.46240234 36.13037109 C21.51264296 36.12502292 18.56303586 36.13031588 15.61328125 36.13671875 C13.75260383 36.13605797 11.8919265 36.13477681 10.03125 36.1328125 C8.69846008 36.13584885 8.69846008 36.13584885 7.33874512 36.13894653 C1.11494988 36.11494988 1.11494988 36.11494988 0 35 C-0.08851529 32.40640678 -0.11525945 29.83960309 -0.09765625 27.24609375 C-0.09553383 26.08292381 -0.09553383 26.08292381 -0.09336853 24.89625549 C-0.08775345 22.40996506 -0.07519846 19.9237634 -0.0625 17.4375 C-0.05748694 15.75586067 -0.0529237 14.07421994 -0.04882812 12.39257812 C-0.03777913 8.26168434 -0.02050445 4.13085724 0 0 Z " fill="#BCE126" transform="translate(188,263)"/>
<path d="M0 0 C0.99 0 1.98 0 3 0 C3.33 0.99 3.66 1.98 4 3 C4.33 2.01 4.66 1.02 5 0 C5.99 0 6.98 0 8 0 C8 4.29 8 8.58 8 13 C0.25 13.125 0.25 13.125 -2 12 C-2.05395478 10.37536158 -2.09277195 8.75021459 -2.125 7.125 C-2.14820313 6.22007812 -2.17140625 5.31515625 -2.1953125 4.3828125 C-2 2 -2 2 0 0 Z " fill="#1C1C1C" transform="translate(359,276)"/>
<path d="M0 0 C1.46619987 0.11922096 2.93595994 0.19915951 4.40625 0.24609375 C5.64568359 0.29540039 5.64568359 0.29540039 6.91015625 0.34570312 C8.63658488 0.4068963 10.36315617 0.46418884 12.08984375 0.51757812 C12.91613281 0.55173828 13.74242187 0.58589844 14.59375 0.62109375 C15.34333984 0.6461499 16.09292969 0.67120605 16.86523438 0.69702148 C19.24527678 1.03481113 20.91908962 1.82197613 23 3 C20.40108846 4.29945577 18.67333344 4.0223077 15.7734375 3.87890625 C14.7421875 3.83056641 13.7109375 3.78222656 12.6484375 3.73242188 C11.02808594 3.64831055 11.02808594 3.64831055 9.375 3.5625 C8.28703125 3.51029297 7.1990625 3.45808594 6.078125 3.40429688 C3.3851419 3.27437225 0.69250664 3.13939838 -2 3 C-2.33 3.99 -2.66 4.98 -3 6 C-5.0625 6.6875 -5.0625 6.6875 -7 7 C-7 8.32 -7 9.64 -7 11 C-8.32 10.67 -9.64 10.34 -11 10 C-9.375 4.25 -9.375 4.25 -6 2 C-6.33 1.34 -6.66 0.68 -7 0 C-3.7447592 -1.08508027 -3.13289798 -0.86711524 0 0 Z " fill="#BCE324" transform="translate(202,212)"/>
<path d="M0 0 C-1.5528003 3.10560061 -4.60798909 3.93636662 -7.625 5.375 C-11.55115297 7.28173328 -15.44593848 9.18286574 -19.1875 11.4375 C-22 13 -22 13 -25 13 C-25 13.66 -25 14.32 -25 15 C-25.66 15 -26.32 15 -27 15 C-27 18.3 -27 21.6 -27 25 C-23.7 25 -20.4 25 -17 25 C-16.67 24.01 -16.34 23.02 -16 22 C-16 23.32 -16 24.64 -16 26 C-19.96 26.33 -23.92 26.66 -28 27 C-28 22.38 -28 17.76 -28 13 C-24.2780177 10.82011013 -20.54834282 8.6558973 -16.8125 6.5 C-15.75740234 5.87996094 -14.70230469 5.25992187 -13.61523438 4.62109375 C-12.59365234 4.03457031 -11.57207031 3.44804687 -10.51953125 2.84375 C-9.58214111 2.29912109 -8.64475098 1.75449219 -7.67895508 1.19335938 C-4.86158538 -0.06165777 -3.04466458 -0.25110636 0 0 Z " fill="#4F6128" transform="translate(231,258)"/>
<path d="M0 0 C2.63627089 0.96663266 3.77918947 1.58613661 5.12060547 4.1003418 C6.20540622 7.67729308 6.25015423 11.00917374 6.1953125 14.70703125 C6.1924826 15.43242599 6.18965271 16.15782074 6.18673706 16.90519714 C6.17559799 19.20780368 6.15050566 21.51001227 6.125 23.8125 C6.11496206 25.37955165 6.10583763 26.94660943 6.09765625 28.51367188 C6.0756793 32.34259978 6.04119339 36.17123256 6 40 C4.68 40.66 3.36 41.32 2 42 C1.67 41.34 1.34 40.68 1 40 C1.99 40 2.98 40 4 40 C4 28.78 4 17.56 4 6 C3.01 6 2.02 6 1 6 C0.67 4.02 0.34 2.04 0 0 Z " fill="#BCE221" transform="translate(225,216)"/>
<path d="M0 0 C1.27617187 0.02320313 2.55234375 0.04640625 3.8671875 0.0703125 C5.78917969 0.09738281 5.78917969 0.09738281 7.75 0.125 C9.23113281 0.15980469 9.23113281 0.15980469 10.7421875 0.1953125 C13.5624782 4.19969471 12.75082221 8.31867789 12.3671875 12.9453125 C12.31046875 13.73808594 12.25375 14.53085937 12.1953125 15.34765625 C12.05435055 17.29762985 11.8996163 19.24659921 11.7421875 21.1953125 C11.4121875 21.1953125 11.0821875 21.1953125 10.7421875 21.1953125 C10.4121875 15.2553125 10.0821875 9.3153125 9.7421875 3.1953125 C5.7821875 3.1953125 1.8221875 3.1953125 -2.2578125 3.1953125 C-2.5878125 5.1753125 -2.9178125 7.1553125 -3.2578125 9.1953125 C-6.5578125 9.1953125 -9.8578125 9.1953125 -13.2578125 9.1953125 C-13.2578125 8.8653125 -13.2578125 8.5353125 -13.2578125 8.1953125 C-10.6178125 8.1953125 -7.9778125 8.1953125 -5.2578125 8.1953125 C-5.2990625 7.2465625 -5.3403125 6.2978125 -5.3828125 5.3203125 C-5.2064817 0.9120425 -4.37760065 0.26244608 0 0 Z " fill="#445625" transform="translate(220.2578125,275.8046875)"/>
<path d="M0 0 C1.97909398 -0.02686553 3.95828971 -0.04633375 5.9375 -0.0625 C7.03964844 -0.07410156 8.14179688 -0.08570313 9.27734375 -0.09765625 C12 0 12 0 13 1 C13.08651611 2.41570123 13.10704904 3.835595 13.09765625 5.25390625 C13.09443359 6.10791016 13.09121094 6.96191406 13.08789062 7.84179688 C13.07951172 8.73962891 13.07113281 9.63746094 13.0625 10.5625 C13.05798828 11.46419922 13.05347656 12.36589844 13.04882812 13.29492188 C13.03700225 15.53001314 13.0205222 17.76497437 13 20 C12.67 20 12.34 20 12 20 C11.67 14.39 11.34 8.78 11 3 C8.586875 2.938125 8.586875 2.938125 6.125 2.875 C5.22007812 2.85179687 4.31515625 2.82859375 3.3828125 2.8046875 C0.81193006 2.75675164 0.81193006 2.75675164 -1 5 C-0.67 3.35 -0.34 1.7 0 0 Z " fill="#B1D425" transform="translate(218,278)"/>
<path d="M0 0 C0.99 0 1.98 0 3 0 C3 4.29 3 8.58 3 13 C2.01 13 1.02 13 0 13 C-1.0161692 8.37078475 -0.83796731 4.65537393 0 0 Z " fill="#3A3A3A" transform="translate(364,276)"/>
<path d="M0 0 C0 0.66 0 1.32 0 2 C-0.99 2 -1.98 2 -3 2 C-3.33 2.99 -3.66 3.98 -4 5 C-7.71316711 7.8644432 -10.36574638 8.32332002 -15 8 C-12.61753661 5.31874582 -10.1454496 3.88576541 -6.9375 2.3125 C-5.62072266 1.65701172 -5.62072266 1.65701172 -4.27734375 0.98828125 C-2 0 -2 0 0 0 Z " fill="#BBE31B" transform="translate(211,251)"/>
<path d="M0 0 C1.2065625 0.0309375 1.2065625 0.0309375 2.4375 0.0625 C2.4375 3.47349168 1.94604594 6.69338314 1.4375 10.0625 C0.4475 10.3925 -0.5425 10.7225 -1.5625 11.0625 C-1.5625 8.4225 -1.5625 5.7825 -1.5625 3.0625 C-2.5525 3.0625 -3.5425 3.0625 -4.5625 3.0625 C-3.06867284 0.07484568 -3.06867284 0.07484568 0 0 Z " fill="#787878" transform="translate(355.5625,275.9375)"/>
<path d="M0 0 C1.32 0.33 2.64 0.66 4 1 C3.34 1 2.68 1 2 1 C2 1.99 2 2.98 2 4 C1.34 4 0.68 4 0 4 C0 6.97 0 9.94 0 13 C-1.32 13 -2.64 13 -4 13 C-4 12.01 -4 11.02 -4 10 C-3.01 10 -2.02 10 -1 10 C-1.020625 8.72125 -1.04125 7.4425 -1.0625 6.125 C-1.125 2.25 -1.125 2.25 0 0 Z " fill="#7F7F7F" transform="translate(347,276)"/>
<path d="M0 0 C0.33 0 0.66 0 1 0 C1.05379226 2.95857409 1.09357093 5.91617721 1.125 8.875 C1.14175781 9.71675781 1.15851563 10.55851563 1.17578125 11.42578125 C1.18222656 12.23144531 1.18867188 13.03710938 1.1953125 13.8671875 C1.20578613 14.61081543 1.21625977 15.35444336 1.22705078 16.12060547 C1 18 1 18 -1 20 C-3.625 20.125 -3.625 20.125 -6 20 C-2.25 17 -2.25 17 0 17 C0 11.39 0 5.78 0 0 Z " fill="#C5EA29" transform="translate(217,231)"/>
<path d="M0 0 C1.32 0.33 2.64 0.66 4 1 C-0.95 3.475 -0.95 3.475 -6 6 C-6.33 5.01 -6.66 4.02 -7 3 C-3.535 2.505 -3.535 2.505 0 2 C0 1.34 0 0.68 0 0 Z " fill="#BEE71D" transform="translate(209,265)"/>
<path d="M0 0 C-1.0975223 2.99324263 -1.67682892 3.84610901 -4.625 5.25 C-5.40875 5.4975 -6.1925 5.745 -7 6 C-6.75 4.125 -6.75 4.125 -6 2 C-3.85331506 0.61504198 -2.56128588 0 0 0 Z " fill="#BEE520" transform="translate(196,259)"/>
<path d="M0 0 C-1.51934706 3.03869411 -3.98004772 3.64410306 -7 5 C-7.66 5 -8.32 5 -9 5 C-7.35234966 0.05704899 -4.76872479 -0.25776891 0 0 Z " fill="#6B7A4C" transform="translate(231,258)"/>
<path d="M0 0 C1.9375 0.75 1.9375 0.75 4 2 C4.75 4.125 4.75 4.125 5 6 C3.68 6 2.36 6 1 6 C0.67 4.02 0.34 2.04 0 0 Z " fill="#B7DF18" transform="translate(225,216)"/>
<path d="M0 0 C-1.2065625 1.175625 -1.2065625 1.175625 -2.4375 2.375 C-4.98690417 4.71982856 -4.98690417 4.71982856 -6 7 C-6.66 6.67 -7.32 6.34 -8 6 C-8 3 -8 3 -6.8125 1.3125 C-4.44258278 -0.40364695 -2.85974334 -0.23187108 0 0 Z " fill="#748A35" transform="translate(198,213)"/>
<path d="M0 0 C0.66 0.33 1.32 0.66 2 1 C-0.40436026 4.60654039 -1.94679607 4.85452932 -6 6 C-5 3 -5 3 -2.5625 1.25 C-1.716875 0.8375 -0.87125 0.425 0 0 Z " fill="#647143" transform="translate(193,257)"/>
</svg>
