<?xml version="1.0" encoding="UTF-8"?>
<svg version="1.1" xmlns="http://www.w3.org/2000/svg" width="1080" height="1350">
<path d="M0 0 C356.4 0 712.8 0 1080 0 C1080 445.5 1080 891 1080 1350 C723.6 1350 367.2 1350 0 1350 C0 904.5 0 459 0 0 Z " fill="#FEFEFE" transform="translate(0,0)"/>
<path d="M0 0 C0.96853409 -0.00960754 1.93706818 -0.01921509 2.93495178 -0.02911377 C4.50520363 -0.03548859 4.50520363 -0.03548859 6.10717773 -0.04199219 C7.1890184 -0.04769226 8.27085907 -0.05339233 9.38548279 -0.05926514 C11.67950462 -0.06871893 13.97354005 -0.07525062 16.26757812 -0.07910156 C19.7527697 -0.08876185 23.2373601 -0.11976346 26.72241211 -0.15136719 C28.9548305 -0.15790202 31.18725309 -0.1631506 33.41967773 -0.16699219 C34.45234268 -0.17933899 35.48500763 -0.19168579 36.54896545 -0.20440674 C48.12029533 -0.16935048 57.36646078 2.9259017 65.98217773 10.75488281 C72.51519712 17.69723925 75.3634731 27.0361019 75.42114258 36.38305664 C75.43340881 37.48116417 75.43340881 37.48116417 75.44592285 38.60145569 C75.47073128 41.02368356 75.48728072 43.44585303 75.50170898 45.86816406 C75.50703266 46.69639868 75.51235634 47.52463329 75.51784134 48.37796593 C75.54455258 52.76148935 75.56393431 57.14498448 75.57836914 61.52856445 C75.59171135 65.15349546 75.61957131 68.77786393 75.66040039 72.40258789 C75.70973623 76.78275754 75.73449105 81.16241676 75.74159622 85.5428524 C75.74830486 87.209811 75.76351702 88.87675837 75.78748703 90.54355812 C75.8191711 92.87998213 75.81917168 95.21444223 75.81176758 97.55102539 C75.82817291 98.23539673 75.84457825 98.91976807 75.86148071 99.62487793 C75.78989676 105.16149811 73.97119379 107.38586912 70.22827148 111.16113281 C68.05371094 112.72167969 68.05371094 112.72167969 65.84155273 113.87988281 C64.99850586 114.33008789 64.15545898 114.78029297 63.28686523 115.24414062 C62.3806543 115.71174805 61.47444336 116.17935547 60.54077148 116.66113281 C59.58686523 117.16741211 58.63295898 117.67369141 57.65014648 118.1953125 C55.59498527 119.28587385 53.53710156 120.37131702 51.47680664 121.45214844 C48.13869704 123.208256 44.81272848 124.98549858 41.48999023 126.77050781 C40.37060059 127.37072754 39.25121094 127.97094727 38.09790039 128.58935547 C35.85770878 129.80050674 33.62420256 131.02410877 31.39770508 132.26025391 C22.42332998 137.21916969 22.42332998 137.21916969 17.50561523 138.84082031 C13.3822085 140.31211093 10.88032844 141.48203143 8.22827148 145.16113281 C6.26776878 154.45021656 6.96540048 163.69777662 7.22827148 173.16113281 C16.46827148 173.16113281 25.70827148 173.16113281 35.22827148 173.16113281 C35.22827148 169.20113281 35.22827148 165.24113281 35.22827148 161.16113281 C39.78093642 156.60846788 40.39615543 156.65108541 46.47827148 156.62988281 C47.17339844 156.62605591 47.86852539 156.622229 48.5847168 156.61828613 C50.05055189 156.61557101 51.51643576 156.62290446 52.98217773 156.63964844 C55.22156123 156.66106863 57.45773735 156.63983839 59.69702148 156.61425781 C61.12411187 156.61690117 62.55120027 156.62202631 63.97827148 156.62988281 C65.91959961 156.63665039 65.91959961 156.63665039 67.90014648 156.64355469 C71.22827148 157.16113281 71.22827148 157.16113281 73.64599609 158.53833008 C76.16890425 162.72033939 75.81865491 166.8629348 75.79467773 171.65722656 C75.80087631 172.68292252 75.80707489 173.70861847 75.8134613 174.76539612 C75.82056078 176.93318737 75.81738329 179.10103313 75.8046875 181.26879883 C75.79083455 184.58354241 75.8248771 187.89545636 75.86303711 191.20996094 C75.86398843 193.3173835 75.86212877 195.4248096 75.85717773 197.53222656 C75.87043594 198.52193954 75.88369415 199.51165253 75.89735413 200.53135681 C75.87855446 201.92288719 75.87855446 201.92288719 75.859375 203.3425293 C75.85841324 204.15431137 75.85745148 204.96609344 75.85646057 205.80247498 C74.87015842 209.50573783 73.30350386 210.90506358 70.22827148 213.16113281 C67.0682444 213.88005516 63.98987398 213.8448811 60.75976562 213.80810547 C59.81282333 213.81686707 58.86588104 213.82562866 57.89024353 213.83465576 C54.76417028 213.85663806 51.63951505 213.8420995 48.51342773 213.82519531 C46.33776071 213.82856405 44.16209552 213.83341715 41.98643494 213.83969116 C37.42762324 213.84706117 32.86930158 213.83635344 28.31054688 213.81298828 C22.47158013 213.78451792 16.63376334 213.80089343 10.79483891 213.8308506 C6.3020311 213.84893424 1.80949507 213.84316023 -2.683321 213.83021164 C-4.8358734 213.82687972 -6.9884506 213.83095712 -9.14097404 213.84260941 C-12.1525882 213.8553333 -15.16235154 213.83591773 -18.17382812 213.80810547 C-19.06077362 213.81822662 -19.94771912 213.82834778 -20.86154175 213.83877563 C-24.89652559 213.76986928 -27.96435296 213.49022676 -31.3260498 211.13314819 C-34.39895591 207.39891926 -34.60343435 204.60057539 -34.50048828 199.96191406 C-34.50618332 199.14991547 -34.51187836 198.33791687 -34.51774597 197.50131226 C-34.52883566 194.82452699 -34.49681494 192.1501999 -34.46313477 189.47363281 C-34.45955669 187.6094593 -34.45820045 185.74528031 -34.45896912 183.88110352 C-34.45428039 179.97703104 -34.42946075 176.07378615 -34.38916016 172.16992188 C-34.33818981 167.16953769 -34.32671746 162.1700624 -34.3289957 157.16944885 C-34.3281793 153.32091621 -34.31171506 149.47258167 -34.28999138 145.62411499 C-34.28045532 143.78056334 -34.27453476 141.93698928 -34.27231026 140.09341431 C-34.26579333 137.51533922 -34.2395075 134.93822047 -34.20751953 132.36035156 C-34.20887909 131.60072113 -34.21023865 130.8410907 -34.2116394 130.05844116 C-34.13074682 125.59219022 -33.53543267 122.70741534 -30.77172852 119.16113281 C-28.10375977 117.30175781 -28.10375977 117.30175781 -24.58422852 115.41113281 C-23.91713867 115.04826172 -23.25004883 114.68539062 -22.56274414 114.31152344 C-19.97428558 112.91157465 -17.37345451 111.53627579 -14.77172852 110.16113281 C-13.56241158 109.5188743 -12.35327593 108.87627438 -11.14428711 108.23339844 C-5.60957219 105.29065676 -0.07446162 102.34872658 5.46777344 99.42016602 C13.37997677 95.23547571 21.25878561 91.01094133 28.98999023 86.49707031 C33.02823037 84.16113281 33.02823037 84.16113281 35.22827148 84.16113281 C35.15931131 78.69803893 35.07130395 73.23570434 34.96582031 67.77319336 C34.932616 65.91585731 34.90457008 64.05842145 34.88183594 62.20092773 C34.84820707 59.52707484 34.79588774 56.85413288 34.73999023 54.18066406 C34.73360031 53.3533931 34.72721039 52.52612213 34.72062683 51.67378235 C34.60535903 47.12907567 34.40532658 43.70122981 31.22827148 40.16113281 C28.9621964 39.44435702 28.9621964 39.44435702 26.41186523 39.60253906 C25.4830957 39.60962891 24.55432617 39.61671875 23.59741211 39.62402344 C22.6299707 39.65689453 21.6625293 39.68976562 20.66577148 39.72363281 C19.20880859 39.73233398 19.20880859 39.73233398 17.72241211 39.74121094 C12.43509014 39.52395877 12.43509014 39.52395877 8.22827148 42.16113281 C7.90575998 44.79657184 7.90575998 44.79657184 7.91967773 47.86816406 C7.89454102 49.01220703 7.8694043 50.15625 7.84350586 51.33496094 C7.80852019 53.74897219 7.77723352 56.16304005 7.74975586 58.57714844 C7.72333008 59.72505859 7.6969043 60.87296875 7.66967773 62.05566406 C7.65622314 63.1060083 7.64276855 64.15635254 7.62890625 65.23852539 C7.13368883 68.85110782 5.82686322 71.56254108 3.22827148 74.16113281 C0.82677222 74.2991719 -1.5439805 74.37419879 -3.94750977 74.39941406 C-4.66907761 74.40748581 -5.39064545 74.41555756 -6.13407898 74.4238739 C-7.66488227 74.43772952 -9.19571665 74.44844505 -10.7265625 74.45629883 C-13.06448322 74.47348764 -15.40098089 74.51735364 -17.73852539 74.56152344 C-19.2248431 74.5716523 -20.71117285 74.5801678 -22.19750977 74.58691406 C-22.89556229 74.60442215 -23.59361481 74.62193024 -24.31282043 74.63996887 C-27.47557243 74.62588872 -29.50478749 74.32582294 -32.21411133 72.65429688 C-34.41559806 69.13053786 -34.32612379 65.87223591 -34.26782227 61.84472656 C-34.2692775 61.03302505 -34.27073273 60.22132355 -34.27223206 59.38502502 C-34.27057352 57.66607072 -34.25901716 55.94710151 -34.23828125 54.22827148 C-34.20959341 51.63166029 -34.21761947 49.03712771 -34.23071289 46.44042969 C-34.21377795 32.51143787 -32.73570505 20.23772372 -23.17797852 9.34472656 C-17.16373698 3.68509833 -8.23117275 0.06601022 0 0 Z " fill="#C5F502" transform="translate(485.771728515625,511.8388671875)"/>
<path d="M0 0 C5.61 0 11.22 0 17 0 C18.8593612 13.23427675 20.68417412 26.47166907 22.390625 39.7265625 C22.51072433 40.65886688 22.63082367 41.59117126 22.75456238 42.55172729 C23.00225951 44.47493474 23.24995542 46.39814234 23.49765015 48.3213501 C25.84459101 66.53619254 28.35085297 84.71870765 31.08349609 102.87988281 C32.23738417 110.57432932 33.33277609 118.24450325 34 126 C36.55630348 110.58195583 38.64938115 95.14105667 40.5 79.625 C42.03465494 66.76228769 43.65809082 53.92984496 45.54199219 41.11279297 C46.87581791 32.00377254 48.08112158 22.88136359 49.25 13.75 C49.38355392 12.70667511 49.38355392 12.70667511 49.51980591 11.64227295 C50.01586492 7.7618477 50.50833863 3.88098659 51 0 C56.94 0 62.88 0 69 0 C69.15855469 1.53140625 69.31710937 3.0628125 69.48046875 4.640625 C70.90260672 18.04785947 72.55294201 31.40089889 74.4375 44.75 C74.54499573 45.51158417 74.65249146 46.27316833 74.76324463 47.05783081 C74.92515289 48.20470871 74.92515289 48.20470871 75.09033203 49.37475586 C75.30770205 50.91518985 75.52498744 52.45563579 75.7421875 53.99609375 C75.84914948 54.754702 75.95611145 55.51331024 76.0663147 56.29490662 C77.6452331 67.53974112 79.0653103 78.80515284 80.49853516 90.06933594 C81.31766477 96.48997217 82.1479457 102.90916556 82.97750854 109.32846069 C83.40731796 112.65511532 83.83644554 115.98185779 84.265625 119.30859375 C84.47880371 120.96072876 84.47880371 120.96072876 84.69628906 122.64624023 C84.79651367 123.42298096 84.89673828 124.19972168 85 125 C86.9723596 113.53939534 88.51659465 102.04796532 89.875 90.5 C91.33699135 78.07861954 93.00653734 65.70155607 94.81817627 53.32659912 C96.6618176 40.70431016 98.26740317 28.06283704 99.74414062 15.39257812 C99.89560547 14.10029297 100.04707031 12.80800781 100.203125 11.4765625 C100.33364258 10.34299316 100.46416016 9.20942383 100.59863281 8.04150391 C100.95460573 5.34399138 101.46638783 2.66806083 102 0 C106.95 0 111.9 0 117 0 C115.98291057 12.48611106 114.50540181 24.83021253 112.60253906 37.2121582 C111.24531022 46.12442008 110.08763438 55.05197872 109 64 C107.79976195 73.85519664 106.49745447 83.68457384 105 93.5 C103.26100247 104.89942862 101.78569738 116.31960777 100.39453125 127.765625 C99.36773675 136.19569413 98.22606725 144.59655674 97 153 C89.41 153 81.82 153 74 153 C68.89833563 121.77781405 63.78684217 90.47189129 60.27783203 59.02490234 C59.95326135 56.65935818 59.48750475 54.33687103 59 52 C58.90058105 52.75361816 58.80116211 53.50723633 58.69873047 54.28369141 C57.05136342 66.70677705 55.35520021 79.12318804 53.65087891 91.53857422 C53.30276786 94.07813642 52.95574675 96.61784829 52.60986328 99.15771484 C50.79082509 112.51177885 48.91945524 125.85319438 46.8046875 139.1640625 C46.63824738 140.21701508 46.47180725 141.26996765 46.30032349 142.35482788 C46.14433685 143.32006378 45.98835022 144.28529968 45.82763672 145.27978516 C45.69154999 146.12288239 45.55546326 146.96597961 45.41525269 147.83462524 C45 150 45 150 44 153 C36.41 153 28.82 153 21 153 C18.81771431 142.73821151 17.18144814 132.55524338 15.92254639 122.14352417 C15.40481099 117.87000346 14.86710351 113.59901136 14.328125 109.328125 C14.21902802 108.46271591 14.10993103 107.59730682 13.99752808 106.70567322 C12.90273235 98.09933716 11.65853906 89.51743308 10.375 80.9375 C10.16159741 79.50700223 9.94821826 78.07650096 9.73486328 76.64599609 C9.33357087 73.95699566 8.93197675 71.26804068 8.53027344 68.57910156 C7.26868068 60.0639313 6.11790431 51.53507227 5 43 C4.90398499 42.26839661 4.80796997 41.53679321 4.70904541 40.78302002 C4.02210189 35.54581296 3.33972731 30.30803031 2.66162109 25.06967163 C2.43009498 23.28265024 2.1978436 21.49572266 1.96484375 19.70889282 C1.63674335 17.18906646 1.31205592 14.66882287 0.98828125 12.1484375 C0.88844437 11.3858815 0.78860748 10.6233255 0.68574524 9.83766174 C0.26224794 6.51504147 0 3.35717921 0 0 Z " fill="#040404" transform="translate(581,545)"/>
<path d="M0 0 C1.5631897 0.00785522 1.5631897 0.00785522 3.15795898 0.01586914 C4.28266602 0.0190918 5.40737305 0.02231445 6.56616211 0.02563477 C7.75016602 0.03401367 8.93416992 0.04239258 10.15405273 0.05102539 C11.34192383 0.05553711 12.52979492 0.06004883 13.75366211 0.06469727 C16.69967499 0.07652864 19.64558954 0.09301252 22.59155273 0.11352539 C25.64828646 14.17235543 28.39317675 28.27236829 30.96655273 42.42602539 C33.22524852 54.84707615 35.58063388 67.24097889 38.09155273 79.61352539 C41.39907156 95.92169627 44.43750792 112.27458609 47.40869141 128.64706421 C48.07953886 132.33719543 48.76113223 136.02491232 49.46069336 139.7097168 C49.60065735 140.44789139 49.74062134 141.18606598 49.88482666 141.9466095 C50.15170525 143.34998749 50.42013985 144.75307076 50.69036865 146.1558075 C51.59155273 150.89422115 51.59155273 150.89422115 51.59155273 153.11352539 C45.98155273 153.11352539 40.37155273 153.11352539 34.59155273 153.11352539 C33.40715939 148.96814869 32.31888887 145.12541974 31.52124023 140.94165039 C31.3472168 140.0302832 31.17319336 139.11891602 30.99389648 138.17993164 C30.81987305 137.25051758 30.64584961 136.32110352 30.46655273 135.36352539 C30.28479492 134.41864258 30.10303711 133.47375977 29.91577148 132.50024414 C28.59155273 125.50080218 28.59155273 125.50080218 28.59155273 122.11352539 C15.72155273 122.11352539 2.85155273 122.11352539 -10.40844727 122.11352539 C-10.73844727 124.75352539 -11.06844727 127.39352539 -11.40844727 130.11352539 C-11.71729895 132.05353433 -12.04033977 133.99136673 -12.38110352 135.92602539 C-12.55834961 136.93793945 -12.7355957 137.94985352 -12.91821289 138.99243164 C-13.10061523 140.02239258 -13.28301758 141.05235352 -13.47094727 142.11352539 C-13.6572168 143.17442383 -13.84348633 144.23532227 -14.03540039 145.32836914 C-14.49134175 147.92372766 -14.94965288 150.51866969 -15.40844727 153.11352539 C-20.68844727 153.11352539 -25.96844727 153.11352539 -31.40844727 153.11352539 C-30.81829662 145.30145638 -29.7123533 137.79737456 -28.15063477 130.12524414 C-27.92694214 129.00132263 -27.70324951 127.87740112 -27.47277832 126.71942139 C-26.99509859 124.32125484 -26.51499726 121.92356955 -26.03265381 119.52633667 C-24.76004682 113.1984993 -23.50661445 106.86686448 -22.25219727 100.53540039 C-22.00335785 99.28129868 -21.75451843 98.02719696 -21.49813843 96.73509216 C-19.50957557 86.68842365 -17.61229422 76.62784361 -15.78344727 66.55102539 C-13.2931042 52.86901193 -10.74868083 39.19802101 -8.14849854 25.53640747 C-7.74044984 23.38993043 -7.33381944 21.24318326 -6.9286499 19.09616089 C-6.36583986 16.11553034 -5.79801225 13.13590004 -5.22875977 10.15649414 C-5.05930847 9.25437195 -4.88985718 8.35224976 -4.715271 7.42279053 C-3.31653569 0.15632936 -3.31653569 0.15632936 0 0 Z " fill="#050505" transform="translate(307.408447265625,544.886474609375)"/>
<path d="M0 0 C49.53208556 0 49.53208556 0 58.55859375 8.4609375 C67.53111006 17.99283762 68.18664873 29.38254093 68.18530273 41.79663086 C68.1874691 44.03063596 68.20558365 46.26413037 68.22460938 48.49804688 C68.27541013 61.03166983 67.93867054 73.76917908 59.46875 83.81640625 C47.81825069 94.77996574 31.99977723 93 17 93 C17 112.8 17 132.6 17 153 C11.39 153 5.78 153 0 153 C0 102.51 0 52.02 0 0 Z " fill="#020202" transform="translate(201,545)"/>
<path d="M0 0 C7.26 0 14.52 0 22 0 C22.99 2.97 23.98 5.94 25 9 C25.55533862 10.60100277 26.11518618 12.20046538 26.68359375 13.796875 C29.58605277 21.99157167 32.43614253 30.17728284 34.94140625 38.50390625 C41.58576432 60.44745044 48.91662224 82.2049915 56 104 C56.33 69.68 56.66 35.36 57 0 C61.95 0 66.9 0 72 0 C72 50.49 72 100.98 72 153 C66.39 153 60.78 153 55 153 C52.80367738 149.70551607 51.91035384 146.57265332 50.875 142.8125 C48.78942815 135.46793987 46.44624825 128.23188926 44 121 C41.45900134 113.47285748 39.04368707 105.93961797 36.86328125 98.30078125 C35.23207127 92.64591998 33.38491632 87.07487112 31.5 81.5 C29.35618417 75.15520032 27.30681109 68.80639186 25.4375 62.375 C22.76914676 53.20681194 19.87538328 44.1053804 17 35 C16.67 73.94 16.34 112.88 16 153 C10.72 153 5.44 153 0 153 C0 102.51 0 52.02 0 0 Z " fill="#060606" transform="translate(746,545)"/>
<path d="M0 0 C5.61 0 11.22 0 17 0 C17.37125 1.134375 17.7425 2.26875 18.125 3.4375 C19.41780687 7.32817469 20.77567512 11.19234752 22.15405273 15.05322266 C24.98079153 22.97936652 27.57542695 30.94045085 30 39 C30.78838749 41.54275147 31.57947097 44.0844899 32.375 46.625 C32.57899414 47.27734619 32.78298828 47.92969238 32.99316406 48.60180664 C35.64489367 57.07328845 38.32295553 65.53649171 41 74 C41.268125 73.06285156 41.53625 72.12570312 41.8125 71.16015625 C45.28354023 59.14139464 49.08831062 47.23771932 52.9296875 35.33300781 C54.02556253 31.92039696 55.10826255 28.50384395 56.1875 25.0859375 C56.54352295 23.961875 56.8995459 22.8378125 57.26635742 21.6796875 C57.94621282 19.53207427 58.62359846 17.38367708 59.2980957 15.234375 C59.60835693 14.25726562 59.91861816 13.28015625 60.23828125 12.2734375 C60.50680908 11.42185059 60.77533691 10.57026367 61.05200195 9.69287109 C62.21046947 6.40214311 63.62573883 3.2066094 65 0 C70.28 0 75.56 0 81 0 C79.91840956 3.36787916 78.83611025 6.7353123 77.74731445 10.10083008 C76.71803004 13.28701578 75.70357095 16.47752687 74.69604492 19.6706543 C71.74172185 28.95927808 68.61323383 38.14065765 65.14883423 47.25283813 C62.81018253 53.4178035 60.53391927 59.60445313 58.3125 65.8125 C58.0874176 66.44152222 57.86233521 67.07054443 57.63043213 67.71862793 C47.52836661 96.17609829 46.37490082 122.82662177 48 153 C42.72 153 37.44 153 32 153 C32.07444336 151.61780273 32.14888672 150.23560547 32.22558594 148.81152344 C33.9967239 111.12202608 28.13734996 82.06816631 14.80557251 47.15231323 C10.71721983 36.43952411 7.21526815 25.57447215 3.82937622 14.62252808 C2.79357616 11.34727776 1.67529211 8.10329534 0.53196716 4.864151 C0 3 0 3 0 0 Z " fill="#020202" transform="translate(357,545)"/>
<path d="M0 0 C5.61 0 11.22 0 17 0 C17 50.49 17 100.98 17 153 C11.39 153 5.78 153 0 153 C0 102.51 0 52.02 0 0 Z " fill="#000000" transform="translate(712,545)"/>
<path d="M0 0 C0.96853409 -0.00960754 1.93706818 -0.01921509 2.93495178 -0.02911377 C4.50520363 -0.03548859 4.50520363 -0.03548859 6.10717773 -0.04199219 C7.1890184 -0.04769226 8.27085907 -0.05339233 9.38548279 -0.05926514 C11.67950462 -0.06871893 13.97354005 -0.07525062 16.26757812 -0.07910156 C19.7527697 -0.08876185 23.2373601 -0.11976346 26.72241211 -0.15136719 C28.9548305 -0.15790202 31.18725309 -0.1631506 33.41967773 -0.16699219 C34.45234268 -0.17933899 35.48500763 -0.19168579 36.54896545 -0.20440674 C48.12029533 -0.16935048 57.36646078 2.9259017 65.98217773 10.75488281 C72.51519712 17.69723925 75.3634731 27.0361019 75.42114258 36.38305664 C75.43340881 37.48116417 75.43340881 37.48116417 75.44592285 38.60145569 C75.47073128 41.02368356 75.48728072 43.44585303 75.50170898 45.86816406 C75.50703266 46.69639868 75.51235634 47.52463329 75.51784134 48.37796593 C75.54455258 52.76148935 75.56393431 57.14498448 75.57836914 61.52856445 C75.59171135 65.15349546 75.61957131 68.77786393 75.66040039 72.40258789 C75.70973623 76.78275754 75.73449105 81.16241676 75.74159622 85.5428524 C75.74830486 87.209811 75.76351702 88.87675837 75.78748703 90.54355812 C75.8191711 92.87998213 75.81917168 95.21444223 75.81176758 97.55102539 C75.82817291 98.23539673 75.84457825 98.91976807 75.86148071 99.62487793 C75.78989676 105.16149811 73.97119379 107.38586912 70.22827148 111.16113281 C68.05371094 112.72167969 68.05371094 112.72167969 65.84155273 113.87988281 C64.99850586 114.33008789 64.15545898 114.78029297 63.28686523 115.24414062 C62.3806543 115.71174805 61.47444336 116.17935547 60.54077148 116.66113281 C59.58686523 117.16741211 58.63295898 117.67369141 57.65014648 118.1953125 C55.59498527 119.28587385 53.53710156 120.37131702 51.47680664 121.45214844 C48.13869704 123.208256 44.81272848 124.98549858 41.48999023 126.77050781 C40.37060059 127.37072754 39.25121094 127.97094727 38.09790039 128.58935547 C35.85770878 129.80050674 33.62420256 131.02410877 31.39770508 132.26025391 C22.42332998 137.21916969 22.42332998 137.21916969 17.50561523 138.84082031 C13.3822085 140.31211093 10.88032844 141.48203143 8.22827148 145.16113281 C6.26776878 154.45021656 6.96540048 163.69777662 7.22827148 173.16113281 C16.46827148 173.16113281 25.70827148 173.16113281 35.22827148 173.16113281 C35.22827148 169.20113281 35.22827148 165.24113281 35.22827148 161.16113281 C39.78093642 156.60846788 40.39615543 156.65108541 46.47827148 156.62988281 C47.17339844 156.62605591 47.86852539 156.622229 48.5847168 156.61828613 C50.05055189 156.61557101 51.51643576 156.62290446 52.98217773 156.63964844 C55.22156123 156.66106863 57.45773735 156.63983839 59.69702148 156.61425781 C61.12411187 156.61690117 62.55120027 156.62202631 63.97827148 156.62988281 C65.91959961 156.63665039 65.91959961 156.63665039 67.90014648 156.64355469 C71.22827148 157.16113281 71.22827148 157.16113281 73.64599609 158.53833008 C76.16890425 162.72033939 75.81865491 166.8629348 75.79467773 171.65722656 C75.80087631 172.68292252 75.80707489 173.70861847 75.8134613 174.76539612 C75.82056078 176.93318737 75.81738329 179.10103313 75.8046875 181.26879883 C75.79083455 184.58354241 75.8248771 187.89545636 75.86303711 191.20996094 C75.86398843 193.3173835 75.86212877 195.4248096 75.85717773 197.53222656 C75.87043594 198.52193954 75.88369415 199.51165253 75.89735413 200.53135681 C75.87855446 201.92288719 75.87855446 201.92288719 75.859375 203.3425293 C75.85841324 204.15431137 75.85745148 204.96609344 75.85646057 205.80247498 C74.87015842 209.50573783 73.30350386 210.90506358 70.22827148 213.16113281 C67.0682444 213.88005516 63.98987398 213.8448811 60.75976562 213.80810547 C59.81282333 213.81686707 58.86588104 213.82562866 57.89024353 213.83465576 C54.76417028 213.85663806 51.63951505 213.8420995 48.51342773 213.82519531 C46.33776071 213.82856405 44.16209552 213.83341715 41.98643494 213.83969116 C37.42762324 213.84706117 32.86930158 213.83635344 28.31054688 213.81298828 C22.47158013 213.78451792 16.63376334 213.80089343 10.79483891 213.8308506 C6.3020311 213.84893424 1.80949507 213.84316023 -2.683321 213.83021164 C-4.8358734 213.82687972 -6.9884506 213.83095712 -9.14097404 213.84260941 C-12.1525882 213.8553333 -15.16235154 213.83591773 -18.17382812 213.80810547 C-19.06077362 213.81822662 -19.94771912 213.82834778 -20.86154175 213.83877563 C-24.89652559 213.76986928 -27.96435296 213.49022676 -31.3260498 211.13314819 C-34.39895591 207.39891926 -34.60343435 204.60057539 -34.50048828 199.96191406 C-34.50618332 199.14991547 -34.51187836 198.33791687 -34.51774597 197.50131226 C-34.52883566 194.82452699 -34.49681494 192.1501999 -34.46313477 189.47363281 C-34.45955669 187.6094593 -34.45820045 185.74528031 -34.45896912 183.88110352 C-34.45428039 179.97703104 -34.42946075 176.07378615 -34.38916016 172.16992188 C-34.33818981 167.16953769 -34.32671746 162.1700624 -34.3289957 157.16944885 C-34.3281793 153.32091621 -34.31171506 149.47258167 -34.28999138 145.62411499 C-34.28045532 143.78056334 -34.27453476 141.93698928 -34.27231026 140.09341431 C-34.26579333 137.51533922 -34.2395075 134.93822047 -34.20751953 132.36035156 C-34.20887909 131.60072113 -34.21023865 130.8410907 -34.2116394 130.05844116 C-34.13074682 125.59219022 -33.53543267 122.70741534 -30.77172852 119.16113281 C-28.10375977 117.30175781 -28.10375977 117.30175781 -24.58422852 115.41113281 C-23.91713867 115.04826172 -23.25004883 114.68539062 -22.56274414 114.31152344 C-19.97428558 112.91157465 -17.37345451 111.53627579 -14.77172852 110.16113281 C-13.56241158 109.5188743 -12.35327593 108.87627438 -11.14428711 108.23339844 C-5.60957219 105.29065676 -0.07446162 102.34872658 5.46777344 99.42016602 C13.37997677 95.23547571 21.25878561 91.01094133 28.98999023 86.49707031 C33.02823037 84.16113281 33.02823037 84.16113281 35.22827148 84.16113281 C35.15931131 78.69803893 35.07130395 73.23570434 34.96582031 67.77319336 C34.932616 65.91585731 34.90457008 64.05842145 34.88183594 62.20092773 C34.84820707 59.52707484 34.79588774 56.85413288 34.73999023 54.18066406 C34.73360031 53.3533931 34.72721039 52.52612213 34.72062683 51.67378235 C34.60535903 47.12907567 34.40532658 43.70122981 31.22827148 40.16113281 C28.9621964 39.44435702 28.9621964 39.44435702 26.41186523 39.60253906 C25.4830957 39.60962891 24.55432617 39.61671875 23.59741211 39.62402344 C22.6299707 39.65689453 21.6625293 39.68976562 20.66577148 39.72363281 C19.20880859 39.73233398 19.20880859 39.73233398 17.72241211 39.74121094 C12.43509014 39.52395877 12.43509014 39.52395877 8.22827148 42.16113281 C7.90575998 44.79657184 7.90575998 44.79657184 7.91967773 47.86816406 C7.89454102 49.01220703 7.8694043 50.15625 7.84350586 51.33496094 C7.80852019 53.74897219 7.77723352 56.16304005 7.74975586 58.57714844 C7.72333008 59.72505859 7.6969043 60.87296875 7.66967773 62.05566406 C7.65622314 63.1060083 7.64276855 64.15635254 7.62890625 65.23852539 C7.13368883 68.85110782 5.82686322 71.56254108 3.22827148 74.16113281 C0.82677222 74.2991719 -1.5439805 74.37419879 -3.94750977 74.39941406 C-4.66907761 74.40748581 -5.39064545 74.41555756 -6.13407898 74.4238739 C-7.66488227 74.43772952 -9.19571665 74.44844505 -10.7265625 74.45629883 C-13.06448322 74.47348764 -15.40098089 74.51735364 -17.73852539 74.56152344 C-19.2248431 74.5716523 -20.71117285 74.5801678 -22.19750977 74.58691406 C-22.89556229 74.60442215 -23.59361481 74.62193024 -24.31282043 74.63996887 C-27.47557243 74.62588872 -29.50478749 74.32582294 -32.21411133 72.65429688 C-34.41559806 69.13053786 -34.32612379 65.87223591 -34.26782227 61.84472656 C-34.2692775 61.03302505 -34.27073273 60.22132355 -34.27223206 59.38502502 C-34.27057352 57.66607072 -34.25901716 55.94710151 -34.23828125 54.22827148 C-34.20959341 51.63166029 -34.21761947 49.03712771 -34.23071289 46.44042969 C-34.21377795 32.51143787 -32.73570505 20.23772372 -23.17797852 9.34472656 C-17.16373698 3.68509833 -8.23117275 0.06601022 0 0 Z M-22.77172852 12.16113281 C-29.24379774 20.75212002 -31.09336008 29.12035083 -31.00219727 39.65722656 C-31.00173904 40.53137711 -31.00128082 41.40552765 -31.00080872 42.3061676 C-30.99780773 44.13731255 -30.98998676 45.96845545 -30.97753906 47.79956055 C-30.95912251 50.61483684 -30.95703077 53.42978655 -30.95727539 56.24511719 C-30.9523654 58.02832318 -30.94653936 59.81152694 -30.93969727 61.59472656 C-30.93858444 62.43942001 -30.93747162 63.28411346 -30.93632507 64.15440369 C-31.27571342 67.96643573 -31.27571342 67.96643573 -29.77172852 71.16113281 C-27.41944533 71.27430565 -25.09760904 71.32529818 -22.74438477 71.32910156 C-22.04026962 71.33242996 -21.33615448 71.33575836 -20.61070251 71.33918762 C-19.11856745 71.34425936 -17.62642101 71.34659587 -16.13427734 71.34643555 C-13.84722244 71.3486204 -11.56065099 71.3667683 -9.27368164 71.38574219 C-7.82641767 71.38867635 -6.3791514 71.39066099 -4.93188477 71.39160156 C-3.9021328 71.40237984 -3.9021328 71.40237984 -2.85157776 71.41337585 C1.13347043 71.49960298 1.13347043 71.49960298 4.22827148 69.16113281 C4.53445101 66.41085322 4.53445101 66.41085322 4.50170898 63.20019531 C4.52233398 62.00652344 4.54295898 60.81285156 4.56420898 59.58300781 C4.59016958 57.05963801 4.60844728 54.53617702 4.61889648 52.01269531 C4.64209961 50.81644531 4.66530273 49.62019531 4.68920898 48.38769531 C4.70153564 46.74148193 4.70153564 46.74148193 4.71411133 45.06201172 C5.34152173 41.52217774 6.45984957 40.37625817 9.22827148 38.16113281 C12.72476828 36.41288441 16.68875204 36.93404445 20.54077148 36.91113281 C21.82371094 36.88019531 21.82371094 36.88019531 23.13256836 36.84863281 C27.97690997 36.81861365 31.32275389 36.94940976 35.22827148 40.16113281 C36.38118833 42.4669665 36.38224486 43.85980168 36.43359375 46.42724609 C36.46351158 47.74838913 36.46351158 47.74838913 36.49403381 49.09622192 C36.51074631 50.04834564 36.5274588 51.00046936 36.54467773 51.98144531 C36.56545883 52.95524139 36.58623993 53.92903748 36.60765076 54.93234253 C36.67315746 58.05019928 36.73203646 61.16814185 36.79077148 64.28613281 C36.83395564 66.39681885 36.87756989 68.50749614 36.92163086 70.61816406 C37.02883995 75.79906232 37.13060426 80.98004638 37.22827148 86.16113281 C36.3473584 86.43481689 35.46644531 86.70850098 34.55883789 86.99047852 C31.47476018 88.07449498 28.80229178 89.32736921 25.93920898 90.89160156 C24.92842285 91.44009766 23.91763672 91.98859375 22.8762207 92.55371094 C21.79614746 93.14603516 20.71607422 93.73835937 19.60327148 94.34863281 C17.87746902 95.28858981 16.15165589 96.22852765 14.42532349 97.16751099 C13.22212762 97.82197851 12.01923071 98.47699592 10.81661987 99.13253784 C6.41923198 101.52598085 2.00080432 103.87715955 -2.42797852 106.21191406 C-4.30855781 107.20656008 -6.18892134 108.20161313 -8.0692749 109.19668579 C-9.85405357 110.13861092 -11.64219966 111.07414663 -13.43041992 112.00952148 C-14.53562988 112.59580322 -15.64083984 113.18208496 -16.77954102 113.78613281 C-17.74520996 114.29402344 -18.71087891 114.80191406 -19.70581055 115.32519531 C-20.71756348 115.93105469 -21.72931641 116.53691406 -22.77172852 117.16113281 C-23.47210236 117.44958069 -24.1724762 117.73802856 -24.89407349 118.03521729 C-27.65480073 119.46962304 -29.00903559 120.56918418 -30.77172852 123.16113281 C-31.95004443 129.52357998 -31.75115944 135.82159061 -31.62329102 142.27050781 C-31.61343969 144.16284816 -31.60684422 146.05520801 -31.60336304 147.9475708 C-31.58810578 151.90562578 -31.54705376 155.86222814 -31.48510742 159.81982422 C-31.40574129 164.89997084 -31.36985437 169.97917559 -31.35048866 175.05987167 C-31.3305768 179.90104524 -31.29079157 184.74198763 -31.24829102 189.58300781 C-31.24149952 190.50978081 -31.23470802 191.4365538 -31.22771072 192.39141083 C-31.20463012 195.00341052 -31.1676068 197.61480477 -31.12573242 200.2265625 C-31.12035461 201.00475845 -31.11497681 201.78295441 -31.10943604 202.58473206 C-31.16662792 206.83356132 -31.16662792 206.83356132 -28.77172852 210.16113281 C-25.68919316 210.3654021 -22.69613334 210.44425325 -19.61206055 210.43579102 C-18.18748535 210.44345741 -18.18748535 210.44345741 -16.73413086 210.45127869 C-13.58253748 210.46522253 -10.43116165 210.46421415 -7.27954102 210.46191406 C-5.09479694 210.46579871 -2.91005361 210.4701329 -0.72531128 210.47489929 C3.85966436 210.48237207 8.44456301 210.48206282 13.02954102 210.47680664 C18.90999323 210.47101439 24.79013023 210.48793214 30.67053032 210.51115131 C35.18463997 210.52587288 39.69867348 210.52676243 44.21280289 210.52364159 C46.38096872 210.52415572 48.54913871 210.52941056 50.71728134 210.53945351 C53.74833474 210.55176821 56.77877118 210.54505561 59.80981445 210.53344727 C60.70866364 210.541091 61.60751282 210.54873474 62.53359985 210.55661011 C66.0756696 210.52657466 68.57616971 210.48039665 71.78656006 208.90861511 C73.5859119 206.72764086 73.72456579 205.63872954 73.71411133 202.82910156 C73.72026459 201.95809814 73.72641785 201.08709473 73.73275757 200.18969727 C73.71838654 199.252146 73.7040155 198.31459473 73.68920898 197.34863281 C73.68829254 196.3833667 73.6873761 195.41810059 73.68643188 194.42358398 C73.68038944 192.38259973 73.66462423 190.3416246 73.63989258 188.30078125 C73.6034119 185.17317096 73.59887298 182.046746 73.59936523 178.91894531 C73.58953322 176.93716422 73.57787586 174.95539117 73.56420898 172.97363281 C73.56198334 172.03608154 73.55975769 171.09853027 73.5574646 170.13256836 C73.5447049 169.26156494 73.53194519 168.39056152 73.51879883 167.49316406 C73.51117523 166.72721924 73.50355164 165.96127441 73.49569702 165.17211914 C73.33660888 162.84678028 73.33660888 162.84678028 71.22827148 160.16113281 C67.96126866 159.69248136 67.96126866 159.69248136 64.10327148 159.76269531 C63.04922119 159.75839005 63.04922119 159.75839005 61.97387695 159.7539978 C60.4877034 159.75195568 59.00150305 159.75749603 57.51538086 159.77001953 C55.2367764 159.78607289 52.95994559 159.77017782 50.68139648 159.75097656 C49.23868422 159.75295897 47.79597307 159.7568026 46.35327148 159.76269531 C45.03584961 159.7660791 43.71842773 159.76946289 42.36108398 159.77294922 C41.32725586 159.9010498 40.29342773 160.02915039 39.22827148 160.16113281 C36.80696817 163.79308778 37.01804363 165.54462629 37.10327148 169.84863281 C37.12131836 171.028125 37.13936523 172.20761719 37.15795898 173.42285156 C37.18116211 174.32648438 37.20436523 175.23011719 37.22827148 176.16113281 C32.99203606 176.06766968 28.75636298 175.96159368 24.52075195 175.84375 C23.07943408 175.80543608 21.6380198 175.77058738 20.1965332 175.73925781 C18.12603262 175.69365835 16.05619716 175.63565838 13.98608398 175.57519531 C12.73972168 175.54377441 11.49335938 175.51235352 10.20922852 175.47998047 C7.22827148 175.16113281 7.22827148 175.16113281 5.22827148 173.16113281 C4.71210282 168.5555099 4.81142609 163.91735435 4.79077148 159.28613281 C4.75790039 157.99320313 4.7250293 156.70027344 4.69116211 155.36816406 C4.68407227 154.12679687 4.67698242 152.88542969 4.66967773 151.60644531 C4.65622314 150.4670752 4.64276855 149.32770508 4.62890625 148.15380859 C5.22827148 145.16113281 5.22827148 145.16113281 7.34350586 142.98876953 C10.47635067 141.0039628 13.65248888 139.17856246 16.94311523 137.47363281 C17.58724869 137.134272 18.23138214 136.79491119 18.89503479 136.44526672 C20.27120445 135.72082742 21.64859455 134.99870249 23.02709961 134.27871704 C25.91418855 132.77004004 28.79426879 131.24821006 31.67483521 129.72712708 C33.83639611 128.5859485 35.99883891 127.4464545 38.16137695 126.30712891 C43.69741221 123.38798691 49.2206576 120.44607255 54.72827148 117.47363281 C55.58541748 117.01794922 56.44256348 116.56226563 57.32568359 116.09277344 C67.0620351 111.30765182 67.0620351 111.30765182 73.22827148 103.16113281 C73.33809501 100.94578333 73.38730915 98.7272746 73.40527344 96.50927734 C73.41184464 95.83721756 73.41841583 95.16515778 73.42518616 94.47273254 C73.44490458 92.24646887 73.45658542 90.020273 73.46655273 87.79394531 C73.47062826 87.02961056 73.47470379 86.2652758 73.47890282 85.47777939 C73.49976858 81.42334007 73.51406175 77.36893452 73.5234375 73.31445312 C73.53443534 69.1577752 73.56875558 65.00164251 73.6086092 60.84515572 C73.63497517 57.62430951 73.6431474 54.40358848 73.64671898 51.18264389 C73.65154249 49.65267171 73.66303299 48.12270349 73.68175697 46.59283829 C73.8183905 34.6775434 73.00122129 22.39845289 64.98217773 12.87207031 C55.94969267 4.06087108 45.43608804 1.69008243 33.13842773 1.72753906 C31.60066933 1.71967628 31.60066933 1.71967628 30.03184509 1.71165466 C27.87801005 1.70527197 25.72413997 1.70652236 23.5703125 1.71508789 C20.3026638 1.72360183 17.03676398 1.69477562 13.76928711 1.66308594 C11.66316783 1.66147353 9.55704551 1.66205222 7.45092773 1.66503906 C6.48913101 1.65380508 5.52733429 1.64257111 4.53639221 1.6309967 C-5.56673915 1.73313936 -15.56903928 4.78507469 -22.77172852 12.16113281 Z " fill="#16190C" transform="translate(485.771728515625,511.8388671875)"/>
<path d="M0 0 C21 0 21 0 29 4 C33.30839145 9.4131072 34.16225217 13.68195938 34.203125 20.4140625 C34.20882507 21.14313812 34.21452515 21.87221375 34.22039795 22.62338257 C34.22984093 24.1683406 34.23637915 25.7133187 34.24023438 27.25830078 C34.2498793 29.59574805 34.28088231 31.93229254 34.3125 34.26953125 C34.44234483 52.2075764 34.44234483 52.2075764 29.54760742 57.60009766 C20.15304974 65.76816342 16.3692153 62 0 62 C0 41.54 0 21.08 0 0 Z " fill="#FCFCFC" transform="translate(218,560)"/>
<path d="M0 0 C2.06931209 3.54826488 2.71020193 7.02233791 3.4453125 11.04296875 C3.57629837 11.7479097 3.70728424 12.45285065 3.84223938 13.17915344 C4.27521171 15.51430983 4.70004309 17.85087287 5.125 20.1875 C5.74060175 23.52527669 6.36045453 26.86225924 6.98046875 30.19921875 C7.14138504 31.06823822 7.30230133 31.93725769 7.46809387 32.83261108 C8.68165184 39.36198486 9.94794622 45.87992734 11.23828125 52.39453125 C11.42243591 53.32629684 11.60659058 54.25806244 11.79632568 55.21806335 C12.52110333 58.88246376 13.24651731 62.54670797 13.98028564 66.20932007 C14.48965762 68.75333479 14.99334453 71.29841956 15.49609375 73.84375 C15.64887283 74.59739334 15.80165192 75.35103668 15.95906067 76.1275177 C16.69731645 79.88967951 17 83.12673867 17 87 C6.11 87 -4.78 87 -16 87 C-15.38788192 80.87881923 -14.77444038 75.23493604 -13.6171875 69.265625 C-13.48209778 68.56083511 -13.34700806 67.85604523 -13.20782471 67.12989807 C-12.76745363 64.8358273 -12.32122408 62.54293875 -11.875 60.25 C-11.24268069 56.96785216 -10.61346842 53.68511123 -9.984375 50.40234375 C-9.82240631 49.55923141 -9.66043762 48.71611908 -9.49356079 47.84745789 C-8.30314528 41.63434232 -7.15007376 35.41496831 -6.015625 29.19140625 C-5.85599274 28.31678741 -5.69636047 27.44216858 -5.53189087 26.54104614 C-4.90827485 23.1211584 -4.28540255 19.70115028 -3.66790771 16.28015137 C-3.24211037 13.92196985 -2.81275017 11.56446082 -2.3828125 9.20703125 C-2.25706848 8.50357071 -2.13132446 7.80011017 -2.00177002 7.07533264 C-1.11346576 2.22693152 -1.11346576 2.22693152 0 0 Z " fill="#F9F9F9" transform="translate(316,565)"/>
<path d="M0 0 C4.08606416 0.65377027 5.49712774 2.40838558 8.125 5.5 C8.41375 4.860625 8.7025 4.22125 9 3.5625 C10.125 1.5 10.125 1.5 12.125 0.5 C17.49227947 0.04321026 17.49227947 0.04321026 19.79150391 1.703125 C21.55134127 4.07449134 21.51223527 5.56394951 21.5234375 8.5 C21.52923828 9.9540625 21.52923828 9.9540625 21.53515625 11.4375 C21.52355469 12.448125 21.51195312 13.45875 21.5 14.5 C21.51160156 15.510625 21.52320313 16.52125 21.53515625 17.5625 C21.53128906 18.531875 21.52742187 19.50125 21.5234375 20.5 C21.51836182 21.8303125 21.51836182 21.8303125 21.51318359 23.1875 C21.04727671 25.9630157 20.38064967 26.8571186 18.125 28.5 C15.125 28.875 15.125 28.875 12.125 28.5 C10.375 27.125 10.375 27.125 9.125 25.5 C8.465 24.84 7.805 24.18 7.125 23.5 C6.3515625 24.7375 6.3515625 24.7375 5.5625 26 C3.125 28.5 3.125 28.5 -0.5 29 C-1.61375 28.835 -2.7275 28.67 -3.875 28.5 C-6.85675151 24.02737273 -6.20427462 19.760522 -6.1875 14.5 C-6.20361328 13.489375 -6.21972656 12.47875 -6.23632812 11.4375 C-6.23697266 10.468125 -6.23761719 9.49875 -6.23828125 8.5 C-6.24126221 7.613125 -6.24424316 6.72625 -6.24731445 5.8125 C-5.60512906 1.82379176 -3.86520279 0.67220918 0 0 Z " fill="#F1F1F1" transform="translate(843.875,668.5)"/>
<path d="M0 0 C1.485 0.99 1.485 0.99 3 2 C3.31088938 4.65432243 3.42704688 7.08010728 3.41650391 9.73852539 C3.42508926 10.53700394 3.43367462 11.33548248 3.44252014 12.15815735 C3.46767089 14.80474553 3.47196669 17.4509593 3.4765625 20.09765625 C3.49086325 21.93087419 3.50661857 23.76408132 3.52377319 25.59727478 C3.56570843 30.4285365 3.59065203 35.25973123 3.61126709 40.09112549 C3.64702899 47.82888796 3.70790858 55.5664852 3.76975632 63.30407524 C3.78891755 66.01465179 3.80059731 68.72518421 3.81118774 71.43580627 C3.82139486 73.08749488 3.83175236 74.73918258 3.84228516 76.39086914 C3.84332748 77.15089233 3.84436981 77.91091553 3.84544373 78.69396973 C3.56326955 82.13670869 3.56326955 82.13670869 5 85 C8.02801375 85.10597601 11.0333434 85.14677518 14.06201172 85.14526367 C15.01318878 85.14862228 15.96436584 85.1519809 16.94436646 85.15544128 C20.10615322 85.16498332 23.26788721 85.16689608 26.4296875 85.16796875 C28.61825584 85.1711793 30.80682397 85.17454321 32.99539185 85.17805481 C37.5905202 85.18405439 42.18562972 85.18589388 46.78076172 85.18530273 C52.67808348 85.18520112 58.57528483 85.19884935 64.47257805 85.21607494 C68.99521442 85.22717708 73.51782152 85.22922249 78.04047012 85.22869301 C80.21504252 85.22987598 82.3896156 85.2343154 84.56417465 85.24202538 C87.60260263 85.25178835 90.64076729 85.24896172 93.67919922 85.24291992 C95.03522247 85.25134918 95.03522247 85.25134918 96.41864014 85.25994873 C97.24590607 85.25575424 98.073172 85.25155975 98.92550659 85.24723816 C99.64412809 85.24778293 100.3627496 85.24832769 101.10314751 85.24888897 C103.33051734 85.09868898 103.33051734 85.09868898 106 83 C106.47426626 81.03009759 106.47426626 81.03009759 106.43237305 78.73388672 C106.45216721 77.85312469 106.47196136 76.97236267 106.49235535 76.06491089 C106.49874527 75.11278717 106.50513519 74.16066345 106.51171875 73.1796875 C106.53864555 71.71899338 106.53864555 71.71899338 106.56611633 70.22879028 C106.62040632 67.11090458 106.65417491 63.99317355 106.6875 60.875 C106.72065657 58.7643013 106.75514466 56.65362306 106.79101562 54.54296875 C106.87614307 49.36211788 106.94441336 44.18124743 107 39 C107.66 39 108.32 39 109 39 C109.1269082 45.31692016 109.21439585 51.63351094 109.2746582 57.95141602 C109.29978285 60.09997849 109.33388861 62.24845565 109.37719727 64.39672852 C109.43793792 67.48735612 109.46623044 70.57685263 109.48828125 73.66796875 C109.51408768 74.62648239 109.5398941 75.58499603 109.56648254 76.57255554 C109.5668602 77.47311172 109.56723785 78.37366791 109.56762695 79.30151367 C109.57873001 80.08983078 109.58983307 80.87814789 109.60127258 81.69035339 C108.64243207 85.37351276 107.04790512 86.75939455 104 89 C100.84014603 89.71953272 97.76154958 89.68374769 94.53149414 89.64697266 C93.1110807 89.66011505 93.1110807 89.66011505 91.66197205 89.67352295 C88.53589879 89.69550525 85.41124357 89.68096668 82.28515625 89.6640625 C80.10948923 89.66743124 77.93382404 89.67228433 75.75816345 89.67855835 C71.19935175 89.68592836 66.6410301 89.67522063 62.08227539 89.65185547 C56.24330865 89.6233851 50.40549186 89.63976062 44.56656742 89.66971779 C40.07375962 89.68780143 35.58122359 89.68202742 31.08840752 89.66907883 C28.93585511 89.66574691 26.78327791 89.66982431 24.63075447 89.68147659 C21.61914031 89.69420049 18.60937698 89.67478492 15.59790039 89.64697266 C14.7109549 89.65709381 13.8240094 89.66721497 12.91018677 89.67764282 C8.87750138 89.60877572 5.8052606 89.32839682 2.44270325 86.97697449 C-0.6448207 83.21414328 -0.81228168 80.3868117 -0.68115234 75.72143555 C-0.6820285 74.90140549 -0.68290466 74.08137543 -0.68380737 73.23649597 C-0.67963892 70.53558908 -0.63302545 67.83718972 -0.5859375 65.13671875 C-0.57474264 63.26057797 -0.56620382 61.38441961 -0.56021118 59.508255 C-0.53733559 54.57749749 -0.47842341 49.64780561 -0.4119873 44.71746826 C-0.3505373 39.68353694 -0.32319037 34.6494329 -0.29296875 29.61523438 C-0.22867886 19.74302216 -0.12631477 9.8715998 0 0 Z " fill="#292B20" transform="translate(452,636)"/>
<path d="M0 0 C0.82886719 -0.01546875 1.65773438 -0.0309375 2.51171875 -0.046875 C8.10882686 -0.01128131 11.20806614 0.86000546 15.5 4.5 C16.6650499 6.8300998 16.6209358 8.17247077 16.61352539 10.76611328 C16.61341209 12.08725632 16.61341209 12.08725632 16.61329651 13.43508911 C16.60813522 14.38721283 16.60297394 15.33933655 16.59765625 16.3203125 C16.5962413 17.29410858 16.59482635 18.26790466 16.59336853 19.27120972 C16.58775973 22.38917073 16.57520573 25.5070606 16.5625 28.625 C16.55748613 30.73567605 16.55292303 32.84635322 16.54882812 34.95703125 C16.53778745 40.13804521 16.52104073 45.31901752 16.5 50.5 C15.60619629 50.97195801 14.71239258 51.44391602 13.79150391 51.93017578 C4.09788818 57.05003232 -5.59027312 62.18011804 -15.27386475 67.31890869 C-17.36535199 68.42856157 -19.45730674 69.53732857 -21.54931641 70.64599609 C-25.09895407 72.52816971 -28.64359691 74.41955103 -32.1875 76.3125 C-33.23534668 76.86760254 -34.28319336 77.42270508 -35.36279297 77.99462891 C-45.18601125 82.57215178 -45.18601125 82.57215178 -51.5 90.5 C-51.61964338 93.06944236 -51.68525624 95.61387381 -51.70532227 98.18432617 C-51.71522186 98.9650499 -51.72512146 99.74577362 -51.73532104 100.55015564 C-51.76691177 103.13106248 -51.79168388 105.71198773 -51.81640625 108.29296875 C-51.83697787 110.08230569 -51.8579744 111.8716378 -51.87937927 113.66096497 C-51.93457842 118.37092166 -51.98399723 123.08092206 -52.03222656 127.79095459 C-52.08245731 132.59700409 -52.13813517 137.40299012 -52.19335938 142.20898438 C-52.30091458 151.63926869 -52.40236544 161.06960812 -52.5 170.5 C-52.83 170.5 -53.16 170.5 -53.5 170.5 C-53.61586331 159.63422862 -53.70469999 148.76860426 -53.75906086 137.90234089 C-53.78515186 132.85662831 -53.82054101 127.81133844 -53.87719727 122.76586914 C-53.93153452 117.89642878 -53.96142428 113.02739493 -53.97438622 108.15767479 C-53.98362301 106.30008736 -54.0016606 104.44252212 -54.02865028 102.5851078 C-54.06496414 99.98243816 -54.06994449 97.38144678 -54.06762695 94.77856445 C-54.08560333 94.0110788 -54.10357971 93.24359314 -54.12210083 92.45285034 C-54.08396515 88.49319383 -53.68007275 86.72305152 -51.16177368 83.60369873 C-48.19599986 81.25973738 -45.139618 79.42424253 -41.78515625 77.71484375 C-41.14097748 77.37680725 -40.49679871 77.03877075 -39.83309937 76.69049072 C-37.74712254 75.59784661 -35.65487464 74.51783312 -33.5625 73.4375 C-31.39269642 72.30387944 -29.22465195 71.1669399 -27.05659485 70.02998352 C-25.60818485 69.27081907 -24.15919985 68.51275064 -22.7096405 67.75578308 C-16.41475681 64.46722864 -10.16684063 61.09881853 -3.9375 57.6875 C-3.0719751 57.21497803 -2.2064502 56.74245605 -1.31469727 56.25561523 C2.30686184 54.27314722 5.90510342 52.2673232 9.46484375 50.17578125 C12.5 48.5 12.5 48.5 14.5 48.5 C14.43103982 43.03690612 14.34303246 37.57457152 14.23754883 32.11206055 C14.20434451 30.2547245 14.17629859 28.39728863 14.15356445 26.53979492 C14.11993558 23.86594202 14.06761626 21.19300007 14.01171875 18.51953125 C14.00532883 17.69226028 13.9989389 16.86498932 13.99235535 16.01264954 C13.87706824 11.46718174 13.67521573 8.04244739 10.5 4.5 C8.25054208 3.78331486 8.25054208 3.78331486 5.71875 3.94140625 C4.33236328 3.95204102 4.33236328 3.95204102 2.91796875 3.96289062 C1.95503906 3.99576172 0.99210937 4.02863281 0 4.0625 C-1.44439453 4.07120117 -1.44439453 4.07120117 -2.91796875 4.08007812 C-8.5372437 4.07355696 -8.5372437 4.07355696 -13.5 6.5 C-14.16 5.84 -14.82 5.18 -15.5 4.5 C-10.37945699 0.31046481 -6.51057 -0.12150364 0 0 Z " fill="#0B0C07" transform="translate(506.5,547.5)"/>
<path d="M0 0 C0 0.66 0 1.32 0 2 C-0.9178125 2.29132812 -1.835625 2.58265625 -2.78125 2.8828125 C-13.10114454 6.33000416 -20.67866461 9.53988428 -25.9921875 19.4609375 C-28.67128742 26.21060783 -29.28417291 32.35479672 -29.1953125 39.53125 C-29.19106766 40.84603333 -29.19106766 40.84603333 -29.18673706 42.18737793 C-29.17563492 44.95839699 -29.15054954 47.72908035 -29.125 50.5 C-29.11495729 52.3906203 -29.10583371 54.28124571 -29.09765625 56.171875 C-29.07572835 60.78137729 -29.04126845 65.39063194 -29 70 C-24.46102295 70.02465392 -19.92208457 70.04283789 -15.38305664 70.05493164 C-13.83780234 70.0599714 -12.29255284 70.0668032 -10.74731445 70.07543945 C-8.53074971 70.08752076 -6.31424782 70.09323173 -4.09765625 70.09765625 C-3.05545677 70.10539818 -3.05545677 70.10539818 -1.99220276 70.11329651 C-0.3277067 70.11349277 1.33665499 70.06189129 3 70 C4.80394875 68.19605125 4.23705789 65.43322201 4.31640625 62.99609375 C4.37924805 61.17368164 4.37924805 61.17368164 4.44335938 59.31445312 C4.48267578 58.03505859 4.52199219 56.75566406 4.5625 55.4375 C4.62727539 53.51260742 4.62727539 53.51260742 4.69335938 51.54882812 C4.799848 48.36600147 4.90185962 45.18309326 5 42 C5.99 41.67 6.98 41.34 8 41 C8.0872253 45.39570794 8.14046869 49.79119271 8.1875 54.1875 C8.21263672 55.43337891 8.23777344 56.67925781 8.26367188 57.96289062 C8.27333984 59.16494141 8.28300781 60.36699219 8.29296875 61.60546875 C8.3086792 62.71043701 8.32438965 63.81540527 8.34057617 64.95385742 C7.92479553 68.67263526 6.66404356 71.33595644 4 74 C1.59850073 74.13803908 -0.77225199 74.21306598 -3.17578125 74.23828125 C-3.89734909 74.246353 -4.61891693 74.25442474 -5.36235046 74.26274109 C-6.89315376 74.27659671 -8.42398814 74.28731224 -9.95483398 74.29516602 C-12.2927547 74.31235483 -14.62925237 74.35622083 -16.96679688 74.40039062 C-18.45311458 74.41051949 -19.93944434 74.41903499 -21.42578125 74.42578125 C-22.12383377 74.44328934 -22.82188629 74.46079742 -23.54109192 74.47883606 C-26.70384391 74.4647559 -28.73305898 74.16469012 -31.44238281 72.49316406 C-33.64386955 68.96940505 -33.55439528 65.71110309 -33.49609375 61.68359375 C-33.49754898 60.87189224 -33.49900421 60.06019073 -33.50050354 59.22389221 C-33.498845 57.50493791 -33.48728864 55.7859687 -33.46655273 54.06713867 C-33.43786489 51.47052748 -33.44589095 48.8759949 -33.45898438 46.27929688 C-33.44204943 32.35030505 -31.96397653 20.0765909 -22.40625 9.18359375 C-16.62302392 3.74135977 -7.91584849 0 0 0 Z " fill="#242811" transform="translate(485,512)"/>
<path d="M0 0 C6.36792224 -0.07656229 12.73572416 -0.12881323 19.10400391 -0.16479492 C21.26680945 -0.17980768 23.42958493 -0.20022416 25.59228516 -0.22631836 C28.71524511 -0.26303366 31.8377998 -0.27980196 34.9609375 -0.29296875 C36.39280899 -0.31619453 36.39280899 -0.31619453 37.85360718 -0.33988953 C49.18282393 -0.34267927 58.34340469 2.95124524 66.75390625 10.59375 C73.29281362 17.54236335 76.14065178 26.88272961 76.17700195 36.23779297 C76.18357315 36.97147095 76.19014435 37.70514893 76.19691467 38.46105957 C76.21661969 40.88810328 76.22830286 43.31508524 76.23828125 45.7421875 C76.24235678 46.57167027 76.2464323 47.40115303 76.25063133 48.25577164 C76.27147832 52.64463298 76.28578699 57.03346316 76.29516602 61.42236328 C76.30623865 65.95422028 76.34065197 70.48558738 76.38033772 75.01727104 C76.40648205 78.50372226 76.4148558 81.99005621 76.41844749 85.47659683 C76.42331769 87.14715007 76.43494408 88.81769792 76.45348549 90.48815536 C76.4778356 92.82697189 76.47692032 95.16451348 76.4699707 97.50341797 C76.48278076 98.19138458 76.49559082 98.8793512 76.50878906 99.58816528 C76.47051255 103.12714679 76.0265293 104.95864613 74.09562683 107.96853638 C72 110 72 110 70 110 C70.309375 109.401875 70.61875 108.80375 70.9375 108.1875 C72.92957281 104.08617363 73.14039383 100.86803979 73.17700195 96.34814453 C73.18357315 95.67608475 73.19014435 95.00402496 73.19691467 94.31159973 C73.21663309 92.08533606 73.22831393 89.85914019 73.23828125 87.6328125 C73.24235678 86.86847775 73.2464323 86.10414299 73.25063133 85.31664658 C73.2714971 81.26220725 73.28579026 77.20780171 73.29516602 73.15332031 C73.30616385 68.99664239 73.34048409 64.84050969 73.38033772 60.6840229 C73.40670368 57.46317669 73.41487591 54.24245567 73.41844749 51.02151108 C73.423271 49.4915389 73.4347615 47.96157068 73.45348549 46.43170547 C73.59080275 34.45678471 72.74501862 22.21283461 64.6875 12.64453125 C56.29513331 4.46585908 45.50011753 2.56583686 34.1796875 2.48828125 C32.70267868 2.46135445 32.70267868 2.46135445 31.1958313 2.43388367 C28.08892951 2.38023654 24.98217723 2.34603243 21.875 2.3125 C19.75258356 2.27928661 17.63018674 2.24479331 15.5078125 2.20898438 C10.3386504 2.12453677 5.16952912 2.05750982 0 2 C0 1.34 0 0.68 0 0 Z " fill="#010101" transform="translate(485,512)"/>
<path d="M0 0 C2.25564967 1.6428814 2.92227671 2.5369843 3.38818359 5.3125 C3.39156738 6.199375 3.39495117 7.08625 3.3984375 8 C3.40230469 8.969375 3.40617188 9.93875 3.41015625 10.9375 C3.39855469 11.948125 3.38695312 12.95875 3.375 14 C3.38660156 15.010625 3.39820313 16.02125 3.41015625 17.0625 C3.40628906 18.031875 3.40242187 19.00125 3.3984375 20 C3.39336182 21.3303125 3.39336182 21.3303125 3.38818359 22.6875 C2.92227671 25.4630157 2.25564967 26.3571186 0 28 C-5.12110131 28.64013766 -5.12110131 28.64013766 -7.66259766 26.7890625 C-9.43095699 24.42350258 -9.38723553 22.9359817 -9.3984375 20 C-9.40230469 19.030625 -9.40617188 18.06125 -9.41015625 17.0625 C-9.39855469 16.051875 -9.38695312 15.04125 -9.375 14 C-9.38660156 12.989375 -9.39820313 11.97875 -9.41015625 10.9375 C-9.40628906 9.968125 -9.40242187 8.99875 -9.3984375 8 C-9.39505371 7.113125 -9.39166992 6.22625 -9.38818359 5.3125 C-8.47767909 -0.11158723 -4.94885473 -0.61860684 0 0 Z " fill="#181818" transform="translate(862,669)"/>
<path d="M0 0 C1.32 0 2.64 0 4 0 C5.32 5.94 6.64 11.88 8 18 C8.33 18 8.66 18 9 18 C9.99 12.39 10.98 6.78 12 1 C13.65 0.67 15.3 0.34 17 0 C17 9.24 17 18.48 17 28 C16.01 28 15.02 28 14 28 C13.67 23.71 13.34 19.42 13 15 C12.01 19.29 11.02 23.58 10 28 C9.01 28 8.02 28 7 28 C6.51526322 26.31409158 6.03751074 24.62617455 5.5625 22.9375 C5.29566406 21.99777344 5.02882813 21.05804687 4.75390625 20.08984375 C3.94471551 16.77341952 3.4827724 13.37940677 3 10 C2.67 15.94 2.34 21.88 2 28 C1.34 28 0.68 28 0 28 C0 18.76 0 9.52 0 0 Z " fill="#292929" transform="translate(869,669)"/>
<path d="M0 0 C0.69512695 -0.0038269 1.39025391 -0.00765381 2.10644531 -0.01159668 C3.57228041 -0.0143118 5.03816428 -0.00697835 6.50390625 0.00976562 C8.74328975 0.03118581 10.97946587 0.00995557 13.21875 -0.015625 C14.64584039 -0.01298165 16.07292879 -0.0078565 17.5 0 C19.44132813 0.00676758 19.44132813 0.00676758 21.421875 0.01367188 C25.24859329 0.60878945 26.47378662 1.45318872 28.75 4.53125 C28.75 5.19125 28.75 5.85125 28.75 6.53125 C27.76 6.53125 26.77 6.53125 25.75 6.53125 C25.255 5.54125 25.255 5.54125 24.75 4.53125 C14.19 4.53125 3.63 4.53125 -7.25 4.53125 C-9.50585658 9.04296315 -8.86312379 14.50185926 -9.25 19.53125 C-19.15 19.53125 -29.05 19.53125 -39.25 19.53125 C-39.25 19.20125 -39.25 18.87125 -39.25 18.53125 C-30.01 18.20125 -20.77 17.87125 -11.25 17.53125 C-11.25 13.24125 -11.25 8.95125 -11.25 4.53125 C-6.69733507 -0.02141493 -6.08211605 0.0212026 0 0 Z " fill="#212510" transform="translate(532.25,668.46875)"/>
<path d="M0 0 C1.875 1.125 1.875 1.125 3 3 C3.1875 6.1875 3.1875 6.1875 3 9 C2.01 9 1.02 9 0 9 C-0.33 7.35 -0.66 5.7 -1 4 C-2.32 4 -3.64 4 -5 4 C-5 10.6 -5 17.2 -5 24 C-3.68 24 -2.36 24 -1 24 C-0.67 22.02 -0.34 20.04 0 18 C0.99 18 1.98 18 3 18 C3.35915493 24.34507042 3.35915493 24.34507042 1.9375 26.9375 C-1.11092516 28.60921702 -3.60528797 28.37033222 -7 28 C-9.98175151 23.52737273 -9.32927462 19.260522 -9.3125 14 C-9.32861328 12.989375 -9.34472656 11.97875 -9.36132812 10.9375 C-9.36197266 9.968125 -9.36261719 8.99875 -9.36328125 8 C-9.36626221 7.113125 -9.36924316 6.22625 -9.37231445 5.3125 C-8.49778115 -0.11935538 -4.93613647 -0.61701706 0 0 Z " fill="#171717" transform="translate(847,669)"/>
<path d="M0 0 C0.66 0 1.32 0 2 0 C2.0927549 8.64928911 2.16379244 17.29840654 2.20724869 25.94808483 C2.22810753 29.96467365 2.25639332 33.98092173 2.30175781 37.99731445 C2.34527746 41.87471672 2.36914992 45.75179164 2.37950897 49.62941933 C2.38688947 51.10740626 2.40130214 52.58537563 2.42292023 54.06322289 C2.45203761 56.13653391 2.45595283 58.20849923 2.45410156 60.28198242 C2.46298401 61.46112717 2.47186646 62.64027191 2.48101807 63.85514832 C1.90194346 67.64108463 0.69528414 69.3259205 -2 72 C-2.66 72 -3.32 72 -4 72 C-3.690625 71.401875 -3.38125 70.80375 -3.0625 70.1875 C-1.12902382 66.20681376 -0.8540259 63.07591307 -0.79467773 58.69262695 C-0.7647599 56.74094353 -0.7647599 56.74094353 -0.73423767 54.74983215 C-0.71725454 53.3293164 -0.70037569 51.9087994 -0.68359375 50.48828125 C-0.66301863 49.03524694 -0.64202201 47.58221854 -0.62062073 46.12919617 C-0.56545766 42.3070047 -0.51602302 38.48475974 -0.46777344 34.66247559 C-0.41751628 30.76126348 -0.36185222 26.86012895 -0.30664062 22.95898438 C-0.19912959 15.30605531 -0.09766902 7.65306167 0 0 Z " fill="#020201" transform="translate(559,550)"/>
<path d="M0 0 C1.65 0.33 3.3 0.66 5 1 C5 7.6 5 14.2 5 21 C3.35 21.33 1.7 21.66 0 22 C-1.58937556 20.41062444 -1.12981143 18.76100154 -1.1328125 16.5625 C-1.13410156 15.66789063 -1.13539063 14.77328125 -1.13671875 13.8515625 C-1.13091797 12.44003906 -1.13091797 12.44003906 -1.125 11 C-1.12886719 10.05898438 -1.13273438 9.11796875 -1.13671875 8.1484375 C-1.13542969 7.25382813 -1.13414062 6.35921875 -1.1328125 5.4375 C-1.13112061 4.19806641 -1.13112061 4.19806641 -1.12939453 2.93359375 C-1 1 -1 1 0 0 Z " fill="#FEFEFE" transform="translate(857,672)"/>
<path d="M0 0 C0.66 0 1.32 0 2 0 C2.0872253 4.39570794 2.14046869 8.79119271 2.1875 13.1875 C2.21263672 14.43337891 2.23777344 15.67925781 2.26367188 16.96289062 C2.27333984 18.16494141 2.28300781 19.36699219 2.29296875 20.60546875 C2.3086792 21.71043701 2.32438965 22.81540527 2.34057617 23.95385742 C1.92479553 27.67263526 0.66404356 30.33595644 -2 33 C-4.44830426 33.08843793 -6.86820599 33.11528752 -9.31640625 33.09765625 C-10.04746078 33.0962413 -10.77851532 33.09482635 -11.53172302 33.09336853 C-13.87535632 33.08775408 -16.21889539 33.07519922 -18.5625 33.0625 C-20.14778508 33.05748686 -21.73307166 33.05292363 -23.31835938 33.04882812 C-27.2122761 33.03777997 -31.10612205 33.02050572 -35 33 C-35 32.67 -35 32.34 -35 32 C-34.0713916 31.98541748 -33.1427832 31.97083496 -32.18603516 31.95581055 C-28.74533504 31.89480828 -25.30544348 31.8206695 -21.86523438 31.73754883 C-20.37543428 31.70426537 -18.88550705 31.67624403 -17.39550781 31.65356445 C-15.25530748 31.62007929 -13.11627581 31.56777211 -10.9765625 31.51171875 C-9.68830566 31.48553467 -8.40004883 31.45935059 -7.07275391 31.43237305 C-6.05874512 31.28968994 -5.04473633 31.14700684 -4 31 C-1.67476742 27.51215112 -1.71436691 25.96454944 -1.62109375 21.8359375 C-1.58693359 20.63195312 -1.55277344 19.42796875 -1.51757812 18.1875 C-1.49115234 16.929375 -1.46472656 15.67125 -1.4375 14.375 C-1.37785761 11.88270948 -1.31427811 9.39050895 -1.24609375 6.8984375 C-1.22216553 5.79161621 -1.1982373 4.68479492 -1.17358398 3.54443359 C-1 1 -1 1 0 0 Z " fill="#3E3F3A" transform="translate(491,553)"/>
<path d="M0 0 C0 0.66 0 1.32 0 2 C-0.9178125 2.29132812 -1.835625 2.58265625 -2.78125 2.8828125 C-13.1322553 6.3403962 -20.90643498 9.57015546 -26.046875 19.6796875 C-26.97839516 21.94740461 -27.59389692 24.11003614 -28.125 26.5 C-28.41375 27.655 -28.7025 28.81 -29 30 C-29.99 30.33 -30.98 30.66 -32 31 C-31.66000978 21.99025916 -27.81675045 14.26961098 -21.25 8.0625 C-16.94341358 4.60229472 -12.20717121 2.72030878 -7 1 C-4 0 -4 0 0 0 Z " fill="#14150D" transform="translate(485,512)"/>
<path d="M0 0 C0.82886719 -0.01546875 1.65773438 -0.0309375 2.51171875 -0.046875 C8.10023136 -0.01133597 11.22905378 0.83918895 15.5 4.5 C16.375 6.75 16.375 6.75 16.5 8.5 C15.51 8.83 14.52 9.16 13.5 9.5 C13.2215625 8.68402344 12.943125 7.86804688 12.65625 7.02734375 C10.80299278 4.33068288 10.80299278 4.33068288 8.33203125 4.05517578 C5.54043776 3.9336434 2.79256017 3.96717164 0 4.0625 C-1.44439453 4.07120117 -1.44439453 4.07120117 -2.91796875 4.08007812 C-8.5372437 4.07355696 -8.5372437 4.07355696 -13.5 6.5 C-14.16 5.84 -14.82 5.18 -15.5 4.5 C-10.37945699 0.31046481 -6.51057 -0.12150364 0 0 Z " fill="#1F230C" transform="translate(506.5,547.5)"/>
<path d="M0 0 C1.32 0 2.64 0 4 0 C5.46670113 5.22512279 6.22577402 9.5814234 6 15 C5.34 15 4.68 15 4 15 C3.67 13.35 3.34 11.7 3 10 C2.67 15.94 2.34 21.88 2 28 C1.34 28 0.68 28 0 28 C0 18.76 0 9.52 0 0 Z " fill="#040404" transform="translate(869,669)"/>
<path d="M0 0 C0.66 0.33 1.32 0.66 2 1 C2 14.86 2 28.72 2 43 C-0.475 43.495 -0.475 43.495 -3 44 C-2.67 43.01 -2.34 42.02 -2 41 C-1.34 41 -0.68 41 0 41 C0 27.47 0 13.94 0 0 Z " fill="#020201" transform="translate(521,555)"/>
<path d="M0 0 C0.33 0 0.66 0 1 0 C1.33 8.25 1.66 16.5 2 25 C15.86 25.495 15.86 25.495 30 26 C28 28 28 28 25.31030273 28.24291992 C24.19598877 28.23881104 23.0816748 28.23470215 21.93359375 28.23046875 C20.72638672 28.22853516 19.51917969 28.22660156 18.27539062 28.22460938 C17.00888672 28.21236328 15.74238281 28.20011719 14.4375 28.1875 C13.16712891 28.18685547 11.89675781 28.18621094 10.58789062 28.18554688 C1.14010053 28.14010053 1.14010053 28.14010053 0 27 C-0.08758003 25.00035018 -0.10696576 22.9976389 -0.09765625 20.99609375 C-0.09443359 19.78115234 -0.09121094 18.56621094 -0.08789062 17.31445312 C-0.07951172 16.03505859 -0.07113281 14.75566406 -0.0625 13.4375 C-0.05798828 12.15423828 -0.05347656 10.87097656 -0.04882812 9.54882812 C-0.03699545 6.36583978 -0.02051068 3.18294238 0 0 Z " fill="#131313" transform="translate(491,659)"/>
<path d="M0 0 C-1 3 -1 3 -4 5 C-4.51104922 7.80810144 -4.51104922 7.80810144 -4.51171875 11.1015625 C-4.56489258 12.91914062 -4.56489258 12.91914062 -4.61914062 14.7734375 C-4.64169922 16.04445313 -4.66425781 17.31546875 -4.6875 18.625 C-4.72166016 19.90375 -4.75582031 21.1825 -4.79101562 22.5 C-4.87372479 25.66657932 -4.94280085 28.83287364 -5 32 C-6.485 32.495 -6.485 32.495 -8 33 C-8.17437877 28.43798302 -8.28089025 23.87682294 -8.375 19.3125 C-8.42527344 18.01892578 -8.47554688 16.72535156 -8.52734375 15.39257812 C-8.67225225 6.04597979 -8.67225225 6.04597979 -6.70800781 2.98974609 C-4.5938687 1.16798793 -2.84520153 0 0 0 Z " fill="#45473B" transform="translate(498,652)"/>
<path d="M0 0 C1.32 0 2.64 0 4 0 C4 9.24 4 18.48 4 28 C3.34 28 2.68 28 2 28 C1.67 20.74 1.34 13.48 1 6 C0.34 6 -0.32 6 -1 6 C-1.042721 4.33388095 -1.04063832 2.66617115 -1 1 C-0.67 0.67 -0.34 0.34 0 0 Z " fill="#050505" transform="translate(882,669)"/>
<path d="M0 0 C4.25230278 1.75251809 5.26830027 3.81220453 7.1171875 7.859375 C9.67389486 14.0588247 10.26987617 19.38803377 10 26 C9.34 26 8.68 26 8 26 C7.75765625 24.9378125 7.5153125 23.875625 7.265625 22.78125 C5.5198611 15.35033748 3.75620608 8.70751086 0 2 C0 1.34 0 0.68 0 0 Z " fill="#22241B" transform="translate(551,524)"/>
<path d="M0 0 C-1.16151216 3.48453649 -1.64339196 3.65352685 -4.74609375 5.296875 C-5.50083984 5.69777344 -6.25558594 6.09867188 -7.03320312 6.51171875 C-7.82662109 6.92035156 -8.62003906 7.32898438 -9.4375 7.75 C-10.22705078 8.17410156 -11.01660156 8.59820313 -11.83007812 9.03515625 C-16.21203767 11.32886739 -16.21203767 11.32886739 -18 12 C-18.66 11.67 -19.32 11.34 -20 11 C-17.9861609 8.84261682 -16.09796497 7.34234338 -13.49609375 5.95703125 C-12.50899414 5.43012695 -12.50899414 5.43012695 -11.50195312 4.89257812 C-10.82068359 4.53615234 -10.13941406 4.17972656 -9.4375 3.8125 C-8.75236328 3.44447266 -8.06722656 3.07644531 -7.36132812 2.69726562 C-2.26204487 0 -2.26204487 0 0 0 Z " fill="#101209" transform="translate(492,612)"/>
<path d="M0 0 C6.9182693 0.1170109 12.81647042 3.69317733 18 8 C18.99 9.485 18.99 9.485 20 11 C16.44231668 11 15.72483995 10.2666229 12.9375 8.1875 C8.21358043 4.90095727 3.56246125 3.32384255 -2 2 C-1.34 1.34 -0.68 0.68 0 0 Z " fill="#0B0D05" transform="translate(532,513)"/>
<path d="M0 0 C0.66 0.33 1.32 0.66 2 1 C2 1.66 2 2.32 2 3 C-0.97 4.32 -3.94 5.64 -7 7 C-7.33 6.01 -7.66 5.02 -8 4 C-6.71349294 3.30289269 -5.42059335 2.61757124 -4.125 1.9375 C-3.40570313 1.55464844 -2.68640625 1.17179688 -1.9453125 0.77734375 C-1.30335938 0.52082031 -0.66140625 0.26429688 0 0 Z " fill="#1D2012" transform="translate(471,622)"/>
<path d="M0 0 C2.1640625 0.2421875 2.1640625 0.2421875 4.625 0.875 C5.44226563 1.07867188 6.25953125 1.28234375 7.1015625 1.4921875 C8.04128906 1.74355469 8.04128906 1.74355469 9 2 C8.67 2.99 8.34 3.98 8 5 C4.7 4.01 1.4 3.02 -2 2 C-1.34 1.34 -0.68 0.68 0 0 Z " fill="#141705" transform="translate(532,513)"/>
<path d="M0 0 C1.231394 3.69418201 0.64432764 6.2056261 0 10 C-0.99 10 -1.98 10 -3 10 C-2.88637738 8.5199159 -2.75877092 7.04089926 -2.625 5.5625 C-2.55539062 4.73878906 -2.48578125 3.91507813 -2.4140625 3.06640625 C-2.27742187 2.38449219 -2.14078125 1.70257812 -2 1 C-1.34 0.67 -0.68 0.34 0 0 Z " fill="#2A2A2A" transform="translate(882,674)"/>
<path d="M0 0 C-1.12005631 3.36016893 -2.37211797 4.69064913 -5 7 C-5.66 7 -6.32 7 -7 7 C-6.61402985 4.20171644 -6.19863427 3.1794116 -4.0625 1.25 C-2 0 -2 0 0 0 Z " fill="#0B0C06" transform="translate(498,652)"/>
<path d="M0 0 C0.66 0.33 1.32 0.66 2 1 C2 1.66 2 2.32 2 3 C-0.3125 4.6875 -0.3125 4.6875 -3 6 C-3.99 5.67 -4.98 5.34 -6 5 C-4.06745228 2.9754262 -2.36841312 1.57894208 0 0 Z " fill="#14160C" transform="translate(517,597)"/>
<path d="M0 0 C1.9375 0.75 1.9375 0.75 4 2 C4.75 4.125 4.75 4.125 5 6 C4.01 6.33 3.02 6.66 2 7 C1.01 5.02 0.02 3.04 -1 1 C-0.67 0.67 -0.34 0.34 0 0 Z " fill="#232517" transform="translate(518,550)"/>
<path d="M0 0 C2.99324263 1.0975223 3.84610901 1.67682892 5.25 4.625 C5.4975 5.40875 5.745 6.1925 6 7 C5.01 7 4.02 7 3 7 C0 2.77777778 0 2.77777778 0 0 Z " fill="#1A1B16" transform="translate(551,524)"/>
<path d="M0 0 C0.33 0 0.66 0 1 0 C1.33 2.31 1.66 4.62 2 7 C1.34 7 0.68 7 0 7 C-0.33 7.66 -0.66 8.32 -1 9 C-1.33 6.69 -1.66 4.38 -2 2 C-1.34 2 -0.68 2 0 2 C0 1.34 0 0.68 0 0 Z " fill="#282828" transform="translate(875,682)"/>
<path d="M0 0 C0.99 0.33 1.98 0.66 3 1 C2.67 2.98 2.34 4.96 2 7 C1.01 7.33 0.02 7.66 -1 8 C-0.67 5.36 -0.34 2.72 0 0 Z " fill="#31361B" transform="translate(454,535)"/>
<path d="M0 0 C-3.96 1.98 -3.96 1.98 -8 4 C-8 3.01 -8 2.02 -8 1 C-4.59449725 -1.06762667 -4.18836538 -1.04709135 0 0 Z " fill="#191A16" transform="translate(506,650)"/>
<path d="M0 0 C-1 3 -1 3 -4 5 C-4.99 4.67 -5.98 4.34 -7 4 C-3.17391304 0 -3.17391304 0 0 0 Z " fill="#0E1005" transform="translate(505,605)"/>
</svg>
